/* XPM */
static char *result[] = {
/* columns rows colors chars-per-pixel */
"32 32 209 2 ",
"   c #140A08",
".  c #250B00",
"X  c #2A1708",
"o  c #3D1D05",
"O  c #371908",
"+  c #2E0810",
"@  c #281816",
"#  c #361C15",
"$  c #382419",
"%  c #02023E",
"&  c #150A32",
"*  c #0B0D2D",
"=  c #241D28",
"-  c #361725",
";  c #280837",
":  c #3D1F30",
">  c #382A22",
",  c #2A363B",
"<  c #2E2937",
"1  c #461D09",
"2  c #4D1512",
"3  c #6A0A04",
"4  c #740C07",
"5  c #68170C",
"6  c #75130E",
"7  c #6B1E1C",
"8  c #791A16",
"9  c #630612",
"0  c #43220A",
"q  c #572806",
"w  c #552A16",
"e  c #682D06",
"r  c #6C3309",
"t  c #773508",
"y  c #6A381B",
"u  c #541C21",
"i  c #5C1134",
"p  c #520E38",
"a  c #620E3F",
"s  c #751430",
"d  c #462928",
"f  c #433126",
"g  c #56392A",
"h  c #423A34",
"j  c #4B3C3A",
"k  c #43333E",
"l  c #5B3A38",
"z  c #542327",
"x  c #632621",
"c  c #61302D",
"v  c #673A37",
"b  c #772220",
"n  c #7D4415",
"m  c #51403E",
"M  c #5E513C",
"N  c #6C512F",
"B  c #675938",
"V  c #7F5F3E",
"C  c #734C2E",
"Z  c #040646",
"A  c #121344",
"S  c #090658",
"D  c #15155A",
"F  c #251746",
"G  c #1A2256",
"H  c #362646",
"J  c #373947",
"K  c #3B3C5A",
"L  c #020467",
"P  c #17176A",
"I  c #081574",
"U  c #100970",
"Y  c #400A5C",
"T  c #711042",
"R  c #640848",
"E  c #793041",
"W  c #70224C",
"Q  c #541179",
"!  c #641568",
"~  c #533972",
"^  c #334241",
"/  c #494A4C",
"(  c #584846",
")  c #5F5A4F",
"_  c #424A53",
"`  c #4E535A",
"'  c #575551",
"]  c #574E57",
"[  c #685747",
"{  c #6E4E51",
"}  c #75654C",
"|  c #716355",
" . c #4B5765",
".. c #5B6665",
"X. c #616262",
"o. c #696C6B",
"O. c #746F7B",
"+. c #8A0A06",
"@. c #970A0A",
"#. c #801A0E",
"$. c #AB0E02",
"%. c #B60C09",
"&. c #B4150A",
"*. c #AA170F",
"=. c #9C300F",
"-. c #8F2115",
";. c #A72412",
":. c #AC2C17",
">. c #890C3A",
",. c #951E30",
"<. c #951125",
"1. c #B10D31",
"2. c #CF0F07",
"3. c #C1160B",
"4. c #CB1C0D",
"5. c #D8190A",
"6. c #D91913",
"7. c #E81908",
"8. c #FC1D06",
"9. c #F71D0A",
"0. c #EB1C11",
"q. c #D0210A",
"w. c #CB2407",
"e. c #E7220B",
"r. c #FB2203",
"t. c #F52109",
"y. c #E82D16",
"u. c #874E17",
"i. c #AA581C",
"p. c #8E5620",
"a. c #A04C22",
"s. c #AD5230",
"d. c #906B32",
"f. c #B16D35",
"g. c #C34929",
"h. c #CC613E",
"j. c #DD7F3A",
"k. c #951A4A",
"l. c #BC5354",
"z. c #946D40",
"x. c #9E7946",
"c. c #AE6B47",
"v. c #9F7E78",
"b. c #996565",
"n. c #EF4F42",
"m. c #E95241",
"M. c #E77667",
"N. c #B8813A",
"B. c #C68E3A",
"V. c #BE8A4B",
"C. c #BA9350",
"Z. c #978970",
"A. c #B59A6D",
"S. c #CD9152",
"D. c #E8994B",
"F. c #CDA85E",
"G. c #E1A14E",
"H. c #EEA850",
"J. c #F6A954",
"K. c #C19E62",
"L. c #DBB172",
"P. c #E6BB72",
"I. c #FCC36A",
"U. c #040C86",
"Y. c #1E0E8E",
"T. c #0C1898",
"R. c #0D1485",
"E. c #240B8D",
"W. c #2A258C",
"Q. c #3B2F85",
"!. c #0517A5",
"~. c #0B17BD",
"^. c #3911A1",
"/. c #401997",
"(. c #4A3DA8",
"). c #4F56B5",
"_. c #091BC9",
"`. c #0D1CD2",
"'. c #1A18C4",
"]. c #0922DE",
"[. c #1124D2",
"{. c #282ECB",
"}. c #0A1FE5",
"|. c #0C1FE9",
" X c #111EE2",
".X c #0921E5",
"XX c #192EED",
"oX c #172AF3",
"OX c #263DEB",
"+X c #4250CB",
"@X c #8478AD",
"#X c #8F9096",
"$X c #A69685",
"%X c #C38B80",
"&X c #D0B286",
"*X c #CAB4A7",
"=X c #DDC196",
"-X c #EBC688",
";X c #EDC89A",
":X c #FFE18E",
">X c #FFE197",
",X c #CAC1AA",
"<X c #FADCA5",
"1X c #FCEAB5",
"2X c #C9CBCE",
"3X c #D0CDCB",
"4X c #F3D1C8",
"5X c #F8F8F8",
"6X c None",
/* pixels */
"6X6X6X6X6X6X6X6X6X6X6X6X6X6X6X6X6X6X6X6X6X6X6X6X6X6X6X6X6X6X6X6X",
"6X6X6X6X6X6X6X6X6X6X6X6X6X6X6X6X6X7 -.b x 6X6X6X6X6X6X6X6X6X6X6X",
"6X6X6X6X6X6X6X6X6X6X6X6X6X6X6Xu 6 3.6.q.:.v 6X6X6X6X6X6X6X6X6X6X",
"6X6X6X6X6X6X6X6X6X6X6X6X6XM 8 &.e.r.r.9.n.v.` 6X6X6X6X6X6X6X6X6X",
"6X6X6X6X6X6X6X6X6X6X6X6Xl 6 &.t.r.r.8.0.m.K.g l 6X6X6X6X6X6X6X6X",
"6X6X6X6X6X6X6X6X6X6X6Xu 3 &.t.r.r.r.7.%.;.g.;.6 v 6X6X6X6X6X6X6X",
"6X6X6X6X6X6X6X6X6Xc 8 &.5.e.r.8.8.7.$.3 4 q.5.*.7 6X6X6X6X6X6X6X",
"6X6X6X6X6X6X6X6X6X8 4.r.r.r.8.9.5.%.=.f.l.s.#.x { 6X6X6X6X6X6X6X",
"6X6X6X6X6X6X6X6X6X#.0.8.8.7.2.%.@.:.S.=X&Xf.g 6X6X6X6X6X6X6X6X6X",
"6X6X6X6X6X6X6X6X6X5 3.5.2.$.@.3 5 S.<X,XB x.N 6X6X6X6X6X6X6X6X6X",
"6X6X6X6X6X6X6X6X6Xz 4 @.+.8 a.n q N.<X,XB K.A.Z.} | 6X6X6X6X6X6X",
"6X6X6X6X6X6X6X6X6X6Xz 2 1 f.G.h.t p.-X=XA.-X1X1X&X} 6X6X6X6X6X6X",
"6X6X6X6X6X6X6X6X6X6X/ X o V.J.D.i.S.L.d.V L.>X:XI.} ) 6X6X6X6X6X",
"6X6X6X6X6X6X6X6X6X6X6X< O u.B.H.H.I.F.0 . p.C.K.d.M 6X6X6X6X6X6X",
"6X6X6X6X6X6X6X6X6X6X6X( 1 q e i.j.J.G.n o . # g ) 6X6X6X6X6X6X6X",
"6X6X6X6X6X6X6X6X6X6X6X> X X + p T s.h.z.w @ , 6X6X6X6X6X6X6X6X6X",
"6X6X6X6X6X6X6X6X6X6X6X[ @   & E.^.>.<.a ; p m 6X6X6X6X6X6X6X6X6X",
"6X6X6X6X6X6X6X6X6X6X6Xl u 9 s Q ^.! ,.T F i d < ` 6X6X6X6X6X6X6X",
"6X6X6X6X6X6X6X6Xo.] c <.*.6.6.k./.).b.W R s {  ., ..6X6X6X6X6X6X",
"6X6X6X6X6X6X6XX.X.#X*XM.y.0.1.Q ^.).$X~ s v @X..^ 6X6X6X6X6X6X6X",
"6X6X6X6X6X6X6Xo.3X5X5X4Xl.k.Q _.oX+X#XW.F k _ ` 6X6X6X6X6X6X6X6X",
"6X6X6X6X6X6X6Xo.2X5X2X#X~ E.~.`.oXOX{.T.A J _ 6X6X6X6X6X6X6X6X6X",
"6X6X6X6X6X6X6XX.o.#X_ A U._..X}.oXoX_.I K 6X6X6X6X6X6X6X6X6X6X6X",
"6X6X6X6X6X6X6X6X6X/ = Z I _..X.X}. XT.G 6X6X6X6X6X6X6X6X6X6X6X6X",
"6X6X6X6X6X6X6X6X6X` < Z L U._..X}._.L  .6X6X6X6X6X6X6X6X6X6X6X6X",
"6X6X6X6X6X6X6X6XH A S L Z Z U.`.}.!.G O.6X6X6X6X6X6X6X6X6X6X6X6X",
"6X6X6X6X6X6X6X$ & U U L Z * Z !.}._.R.H j 6X6X6X6X6X6X6X6X6X6X6X",
"6X6X6X6X6X6X$ O # F U D * / H I `.].W.: 1 f 6X6X6X6X6X6X6X6X6X6X",
"6X6X6X6X6X6X> o o o - @ X j ' F P W.H q r q M 6X6X6X6X6X6X6X6X6X",
"6X6X6X6X6X6X| f O o 0 o X > = @ # u q r n c [ 6X6X6X6X6X6X6X6X6X",
"6X6X6X6X6X6X6X6Xj d # O > 6Xm @ 1 r r e y C 6X6X6X6X6X6X6X6X6X6X",
"6X6X6X6X6X6X6X6X6X6Xh h 6X6X6X> # 1 w d 6X6X6X6X6X6X6X6X6X6X6X6X"
};
