/* XPM */
static char *result[] = {
/* columns rows colors chars-per-pixel */
"32 32 187 2 ",
"   c #4C2E12",
".  c #5D3609",
"X  c #6C3F01",
"o  c #603807",
"O  c #5D3A23",
"+  c #633C21",
"@  c #714200",
"#  c #CD3A3E",
"$  c #BA7012",
"%  c #B66D15",
"&  c #BE752E",
"*  c #C87416",
"=  c #CC4A2B",
"-  c #C15B3E",
";  c #D45E31",
":  c #C8792C",
">  c #D77C25",
",  c #CA7F3B",
"<  c #D97333",
"1  c #BF3E63",
"2  c #CA3141",
"3  c #CA255B",
"4  c #CC3368",
"5  c #D83B7A",
"6  c #B97547",
"7  c #BF4E71",
"8  c #B95977",
"9  c #B75269",
"0  c #D24451",
"q  c #C55641",
"w  c #C57944",
"e  c #CF5C6D",
"r  c #D45B6F",
"t  c #CD4475",
"y  c #D74777",
"u  c #C15171",
"i  c #CC7B68",
"p  c #E17A69",
"a  c #E07371",
"s  c #DB8B11",
"d  c #D58916",
"f  c #DD931A",
"g  c #DE981E",
"h  c #E49916",
"j  c #E4A718",
"k  c #EBB51C",
"l  c #EAB017",
"z  c #F1B516",
"x  c #DD872D",
"c  c #D99337",
"v  c #E59123",
"b  c #EFB825",
"n  c #F0B220",
"m  c #EAA737",
"M  c #E7B83A",
"N  c #ECB032",
"B  c #EDC21F",
"V  c #F6CD1C",
"C  c #F4C61C",
"Z  c #F7D11E",
"A  c #EFCC2B",
"S  c #EAC227",
"D  c #F2CB25",
"F  c #F3C124",
"G  c #F4D322",
"H  c #F7DF26",
"J  c #F6DE28",
"K  c #F8DD24",
"L  c #F2C437",
"P  c #F7E126",
"I  c #BA9F6D",
"U  c #B69171",
"Y  c #A6856D",
"T  c #BEA26D",
"R  c #DE9844",
"E  c #EFA64A",
"W  c #E5AE51",
"Q  c #E8B754",
"!  c #DD8064",
"~  c #CE9361",
"^  c #D69E6D",
"/  c #D29972",
"(  c #E78664",
")  c #C2A775",
"_  c #E6A66D",
"`  c #F4CB41",
"'  c #BA7E8E",
"]  c #DC5786",
"[  c #E05A8B",
"{  c #C86E82",
"}  c #DF6191",
"|  c #E954A1",
" . c #F06DA5",
".. c #E974A5",
"X. c #F371AC",
"o. c #EF78B3",
"O. c #F47BB4",
"+. c #BD989E",
"@. c #B88D94",
"#. c #B0A38A",
"$. c #B0A792",
"%. c #B6A7AB",
"&. c #BAB4A7",
"*. c #BCB3B8",
"=. c #CE968E",
"-. c #C38C95",
";. c #CE9695",
":. c #ED8C9B",
">. c #F09598",
",. c #CAAC9B",
"<. c #D38FA9",
"1. c #CC96AC",
"2. c #DC9DAA",
"3. c #CE9FB2",
"4. c #D09DB4",
"5. c #E683A5",
"6. c #E78CAA",
"7. c #EA8DAD",
"8. c #E596AE",
"9. c #EA90AE",
"0. c #E798AF",
"q. c #EF8EB3",
"w. c #ED84B2",
"e. c #F283B4",
"r. c #F486B9",
"t. c #F58CBC",
"y. c #F88EBD",
"u. c #F388B5",
"i. c #E69FB4",
"p. c #E699B8",
"a. c #F592BF",
"s. c #F498BE",
"d. c #D2A6AF",
"f. c #C9A2B3",
"g. c #C7BDBE",
"h. c #D9B3BE",
"j. c #C2BBAC",
"k. c #EFB8A7",
"l. c #E3AEBB",
"z. c #E6A3B5",
"x. c #F1BCA8",
"c. c #EED19F",
"v. c #C4C1BD",
"b. c #E9CAAB",
"n. c #F2C7A7",
"m. c #EECCB1",
"M. c #F595C0",
"N. c #F896C1",
"B. c #F69CC3",
"V. c #F89EC5",
"C. c #D3BCC2",
"Z. c #DBBCC5",
"A. c #D8B7C1",
"S. c #ECAFCA",
"D. c #F6A3C6",
"F. c #F8A0C6",
"G. c #F7A7C8",
"H. c #F6ABCA",
"J. c #F3ABC7",
"K. c #F4B3CD",
"L. c #F5BCD3",
"P. c #C5C6C4",
"I. c #C7CBCC",
"U. c #CCCCCD",
"Y. c #D7CBCE",
"T. c #D6CED1",
"R. c #DACDD2",
"E. c #D3D4D5",
"W. c #DADCDD",
"Q. c #D5D9DA",
"!. c #E2C8CF",
"~. c #E3C1CB",
"^. c #E6CDD6",
"/. c #F4CBDA",
"(. c #E0D1D6",
"). c #F6D5DF",
"_. c #DCDFE0",
"`. c #F4D6E0",
"'. c #F6DDE4",
"]. c #DEE2E2",
"[. c #E2E3E4",
"{. c #EDE1E7",
"}. c #F4E2E9",
"|. c #F6EBED",
" X c #F5EFF1",
".X c #F6F4F4",
"XX c None",
/* pixels */
"XXXXXXXXXXXXXXXXXXXXXXXXXXXXXXXXXXXXXXXXXXXXXXXXXXXXXXXXXXXXXXXX",
"XXXXXXXXXXXXXXXXXXXXXXXXXXXXz.| | p.XXXXXXXXXXXXXXXXXXXXXXXXXXXX",
"XXXXXXXXXXXXXXXXXXXXXXXXXXi e p ( r i XXXXXXXXXXXXXXXXXXXXXXXXXX",
"XXXXXXXXXXXXXXXXXXXXXXXXXX> : N N : > x XXXXXXXXXXXXXXXXXXXXXXXX",
"XXXXXXXXXXXXXXXXXXXXXXXXz D b n n b D z XXXXXXXXXXXXXXXXXXXXXXXX",
"XXXXXXXXXXXXXXXXXXXXk C G Z H J P P V V C b XXXXXXXXXXXXXXXXXXXX",
"XXXXXXXXXXXXXXXXXXXXj j s s z V G z h d j j XXXXXXXXXXXXXXXXXXXX",
"XXXXXXXXXXXXXXXXXXXX* c g : % s h % : f c * XXXXXXXXXXXXXXXXXXXX",
"XXXXXXXXXXXXXXXXXXXXXXW M U O ~ ^ + Y M Q : XXXXXXXXXXXXXXXXXXXX",
"XXXXXXXXXXXXXXXXXXXXh v L c.,.b.m.,.b.` v h XXXXXXXXXXXXXXXXXXXX",
"XXXXXXXXXXXXXXXXXXXXg = ; _ n.x.k.n._ < = f XXXXXXXXXXXXXXXXXXXX",
"XXXXXXXXXXXXXXXXXXXXG x 0 q 6 p p 6 - 0 < D XXXXXXXXXXXXXXXXXXXX",
"XXXXXXXXXXXXXXXXG k m >.] 4 w S F c 4 5 :.E j G A XXXXXXXXXXXXXX",
"XXXXXXXXXXXXD P P G N p t 3 2 R R # 3 t a m G H P D XXXXXXXXXXXX",
"XXXXXXXXXXXXj F G Z S ^ =.8 1 A.Y.u 7 ;./ S G G B k XXXXXXXXXXXX",
"XXXXXXXXXXXXXXXXd d XXt 7 %.+.-.-.@.%.8 t XXd d * XXXXXXXXXXXXXX",
"XXXXXXXXXXXXXXXXXXXXo. .[ <.R.{ 9 %.' ]  .o.XXXXXXXXXXXXXXXXXXXX",
"XXXXXXXXXXXXXXXXXXu.B.V.V.a.S.{.Y.1.} a.V.V.t.o.XXXXXXXXXXXXXXXX",
"XXXXXXXXXXXXXXXXa.V.F.F.F.F.t.^.].f.a.F.F.F.F.M.XXXXXXXXXXXXXXXX",
"XXXXXXXXXXXXXXt.V.F.F.F.F.F.y.4.*.<.B.F.F.V.F.V.a.XXXXXXXXXXXXXX",
"XXXXXXXXXXXXr.M.N.V.F.F.F.F.V.s.p.V.V.F.V.F.V.N.M.r.XXXXXXXXXXXX",
"XXXXXXXXXXM.M.M.N.V.V.F.V.F.F.F.F.D.V.N.F.F.V.N.M.M.M.XXXXXXXXXX",
"XXXXXXXXXX).D.t.F.K.G.V.a.s.F.G.F.F.V.M.V.G.H.G.y.B./.XXXXXXXXXX",
"XXXXXXXX{./.t.B.'..X).F.y.F.G.K.L.H.F.M.V./. X|.G.t.L.}.XXXXXXXX",
"XXXXXXXXw.e.X.V.|..X}.G.y.G.)..X.X'.H.y.F.)..X|.H.X.O.u.XXXXXXXX",
"XXXXXXf.8.6...e.G.K.D.u.y.G.)..X.X}.H.y.u.D.K.J.e...5.8.f.XXXXXX",
"XXXXE.T.g.h.2.i.0.q.7.5.6.q.s.J.J.s.q.7.5.7.9.8.i.2.h.C.Y.Q.I.XX",
"XXXX].[.U.P.g.C.Z.Z.A.d.l.l.z.0.0.z.l.l.d.h.Z.~.Z.g.P.P.].[.XXXX",
"XXXXXXXXXXE._._.[.[.Q.U.E.Y.^.!.!.^.R.T.U.E.[.[.].W.Q.XXXXXXXXXX",
"XXXXXXXXXXXXXXXXj.) T #.&.v.W.W.W.W.P.&.$.I ) &.XXXXXXXXXXXXXXXX",
"XXXXXXXXXXXXXXXXXXX @ o   XXXXXXXXXXXX  . @ X XXXXXXXXXXXXXXXXXX",
"XXXXXXXXXXXXXXXXXXXXXXXXXXXXXXXXXXXXXXXXXXXXXXXXXXXXXXXXXXXXXXXX"
};
