/* XPM */
static char *result[] = {
/* columns rows colors chars-per-pixel */
"32 32 163 2 ",
"   c #020204",
".  c #090506",
"X  c #0B0808",
"o  c #171304",
"O  c #221D03",
"+  c #210A13",
"@  c #231917",
"#  c #2B2409",
"$  c #342B05",
"%  c #342C0D",
"&  c #3B340B",
"*  c #272018",
"=  c #2C241C",
"-  c #322A1F",
";  c #391424",
":  c #351421",
">  c #3B262F",
",  c #36222A",
"<  c #3A3126",
"1  c #3D2830",
"2  c #423306",
"3  c #443A0B",
"4  c #4A3E09",
"5  c #453907",
"6  c #46172B",
"7  c #511832",
"8  c #413629",
"9  c #45392E",
"0  c #5D3025",
"q  c #432A34",
"w  c #482C37",
"e  c #623526",
"r  c #61213C",
"t  c #4D4106",
"y  c #514506",
"u  c #524508",
"i  c #584A07",
"p  c #4A4818",
"a  c #5A581C",
"s  c #7A660A",
"d  c #7E6B0A",
"f  c #776508",
"g  c #514233",
"h  c #594938",
"j  c #745D27",
"k  c #785C27",
"l  c #64523E",
"z  c #776724",
"x  c #7D7923",
"c  c #5F2C41",
"v  c #5A3645",
"b  c #633D4D",
"n  c #234142",
"m  c #214850",
"M  c #6C5844",
"N  c #705C45",
"B  c #674050",
"V  c #6C4255",
"C  c #794A5E",
"Z  c #7B5E53",
"A  c #517D5F",
"S  c #7B654C",
"D  c #73754E",
"F  c #805C0C",
"G  c #AC4A05",
"H  c #AA5609",
"J  c #87690A",
"K  c #8A7506",
"L  c #8A7408",
"P  c #937C06",
"I  c #947D0A",
"U  c #816C1D",
"Y  c #8C7A10",
"T  c #85284F",
"R  c #8B2A56",
"E  c #9C2D5D",
"W  c #9F3061",
"Q  c #81694F",
"!  c #856D52",
"~  c #9C695B",
"^  c #8A7254",
"/  c #8E765B",
"(  c #987D5D",
")  c #9B5B78",
"_  c #AE406F",
"`  c #B04070",
"'  c #B34C78",
"]  c #A45578",
"[  c #9D6079",
"{  c #66804A",
"}  c #618152",
"|  c #9F8609",
" . c #9D8810",
".. c #A58B06",
"X. c #A58B0A",
"o. c #A98F06",
"O. c #AB9009",
"+. c #AF9306",
"@. c #B09507",
"#. c #B6990C",
"$. c #B49708",
"%. c #B7BB3A",
"&. c #C7A707",
"*. c #CBAC06",
"=. c #C3A509",
"-. c #CBAB09",
";. c #D4B206",
":. c #D8B608",
">. c #D9B708",
",. c #E2BE06",
"<. c #DF973B",
"1. c #E5C106",
"2. c #E9C406",
"3. c #EFC905",
"4. c #EEC808",
"5. c #E9C508",
"6. c #F2CC05",
"7. c #A78966",
"8. c #B0836E",
"9. c #B2916D",
"0. c #BE8977",
"q. c #BA9872",
"w. c #D9864B",
"e. c #E59E4E",
"r. c #E8A155",
"t. c #F2B357",
"y. c #C39F77",
"u. c #C6A27A",
"i. c #F0A971",
"p. c #AC6482",
"a. c #AD6A85",
"s. c #A66582",
"d. c #B06B87",
"f. c #CE5488",
"g. c #CA5084",
"h. c #D66294",
"j. c #CA7699",
"k. c #C8789A",
"l. c #D0749A",
"z. c #D07FA1",
"x. c #E37AA7",
"c. c #E57DAA",
"v. c #E879AB",
"b. c #93958C",
"n. c #EF9F8F",
"m. c #EE9D9A",
"M. c #F19D96",
"N. c #F0A287",
"B. c #F5A692",
"V. c #F9BD96",
"C. c #F6B994",
"Z. c #E985AF",
"A. c #E783AD",
"S. c #ED8AB3",
"D. c #E986B0",
"F. c #EF91B8",
"G. c #F192BB",
"H. c #F6C995",
"J. c #FACC97",
"K. c #FCCE99",
"L. c #F6C094",
"P. c #FFD19B",
"I. c None",
/* pixels */
"I.I.I.I.I.I.I.I.I.I.I.I.I.I.I.I.I.I.I.I.I.I.I.I.I.I.I.I.I.I.I.I.",
"I.I.I.I.I.I.I.I.I.I.I.I.I.I.I.# # # I.# I.I.I.I.I.I.I.I.I.I.I.I.",
"I.I.I.I.I.I.I.I.I.I.I.I.I.I.  a z J F x p I.I.I.I.I.I.I.I.I.I.I.",
"I.I.I.I.I.I.I.I.I.I.I.I.I.$ $ m } G H A n I.I.I.I.I.I.I.I.I.I.I.",
"I.I.I.I.I.I.I.I.I.I.I.I.J >.,.Y & 2 2 &  .d I.I.I.I.I.I.I.I.I.I.",
"I.I.I.I.I.I.I.I.I.I.I.d 2.6.6.4.2.1.,.,.6.1.t I.I.I.I.I.I.I.I.I.",
"I.I.I.I.I.I.I.I.o 5 d 2.3.3.6.;.+.;.6.*.+.>.f I.I.I.I.I.I.I.I.I.",
"I.I.I.I.I.I.I.I.& #.2.6.6.6.;.i = U o.z @ | 6.4 I.I.I.I.I.I.I.I.",
"I.I.I.I.I.I.I.I.# L 3.;.X.X.U = l S g ! g f X.3 I.I.I.I.I.I.I.I.",
"I.I.I.I.I.I.I.I.3 #.6.I * @ N I.I.S H.l I.. . I.I.I.I.I.I.I.I.I.",
"I.I.I.I.I.I.I.I.I.u 6.P M 9.7.K.S 7.J.( / = I.I.I.I.I.I.I.I.I.I.",
"I.I.I.I.I.I.I.I.I.y 3.$.D b.y.K.H.V.C.L.J.h   I.I.I.I.I.I.I.I.I.",
"I.I.I.I.I.I.I.I.% I 4.6.%.{ z y.J.V.B.L.q.z O I.I.I.I.I.I.I.I.I.",
"I.I.I.I.I.I.I.% I &.O.6.&.K 5 8 ^ 0.m.8.- y 3 I.I.I.I.I.I.I.I.I.",
"I.I.I.I.I.I.I.& J s | &.k V V V b p.v.) V V > I.I.I.I.I.I.I.I.I.",
"I.I.I.I.I.I.I.I.  u =.j s.G.G.G.G.G.N.B.G.G.[ V , I.I.I.I.I.I.I.",
"I.I.I.I.I.I.I.I.& X.P b G.G.G.c.v.N.e.r.m.G.G.F.w I.I.I.I.I.I.I.",
"I.I.I.I.I.I.I.I.t 6.*.k V V V c ] t.w.<.i.) V V @ I.I.I.I.I.I.I.",
"I.I.I.I.I.I.I.I.% P 6.*.y < ^ 8 C M.e.r.~ Z ^ =   I.I.I.I.I.I.I.",
"I.I.I.I.I.I.I.I.I.% I 6.K M K.Q C G.M.m.v 8 u.g I.I.I.I.I.I.I.I.",
"I.I.I.I.I.I.I.I.I.3 #.6.K M 9.9 w a.G.) 1 I.g < I.I.I.I.I.I.I.I.",
"I.I.I.I.I.I.I.I.I.% L 6.;.z 9 I.I.q a.b I.I.I.I.I.I.I.I.I.I.I.I.",
"I.I.I.I.I.I.I.I.I.I.i 6.@.e 7 I.I.I.q 1 I.  I.I.I.I.I.I.I.I.I.I.",
"I.I.I.I.I.I.I.I.I.3 =.6.L 7 ' b . I.  I.I.. I.I.I.I.I.I.I.I.I.I.",
"I.I.I.I.I.I.I.I.I.u 5.O.e E h.z.p.b . X r T ; I.I.I.I.I.I.I.I.I.",
"I.I.I.I.I.I.I.I.I.% 3 0 E f.D.G.G.z.d.d.l.f.6 I.I.I.I.I.I.I.I.I.",
"I.I.I.I.I.I.I.I.I.; R W f.D.F.F.G.G.G.G.G.Z.d.w I.I.I.I.I.I.I.I.",
"I.I.I.I.I.I.I.I.I.v c.c.D.G.F.G.F.G.F.F.G.G.F.v I.I.I.I.I.I.I.I.",
"I.I.I.I.I.I.I.I.w j.S.S.S.S.S.S.S.S.S.S.S.S.S.j.q I.I.I.I.I.I.I.",
"I.I.I.I.I.I.I.I.; ` ` ` ` ` ` ` ` ` ` ` ` ` ` _ : I.I.I.I.I.I.I.",
"I.I.I.I.I.I.I.I.. + + + + + + + + + + + + + + + . I.I.I.I.I.I.I.",
"I.I.I.I.I.I.I.I.I.I.I.I.I.I.I.I.I.I.I.I.I.I.I.I.I.I.I.I.I.I.I.I."
};
