/* XPM */
static char *_d50849acec44d40e384572901bd41aeirr3fDkrgV0F8Dyt[] = {
/* columns rows colors chars-per-pixel */
"32 32 232 2 ",
"   c #1B671C",
".  c #1D7114",
"X  c #1F7319",
"o  c #2D6B1F",
"O  c #25751F",
"+  c #0F5F2D",
"@  c #1C5B2C",
"#  c #1B5D39",
"$  c #215A39",
"%  c #176B27",
"&  c #186923",
"*  c #14662A",
"=  c #1D632E",
"-  c #1C6B2B",
";  c #1D7626",
":  c #1E712E",
">  c #186535",
",  c #1B6E32",
"<  c #19633D",
"1  c #1C6D39",
"2  c #1D7333",
"3  c #1E7933",
"4  c #1C723C",
"5  c #1B793A",
"6  c #256B24",
"7  c #23662F",
"8  c #247424",
"9  c #2B7D23",
"0  c #26762B",
"q  c #23732C",
"w  c #2B7C2B",
"e  c #33762F",
"r  c #347F2F",
"t  c #236435",
"y  c #226F34",
"u  c #296D33",
"i  c #21653D",
"p  c #246B3B",
"a  c #296B3B",
"s  c #247435",
"d  c #2C7335",
"f  c #227C35",
"g  c #2E7D35",
"h  c #24743C",
"j  c #29723D",
"k  c #257C3B",
"l  c #2A7C3B",
"z  c #357633",
"x  c #327B33",
"c  c #317A3B",
"v  c #1E5B47",
"b  c #22554B",
"n  c #2C5A4F",
"m  c #166241",
"M  c #1A6641",
"N  c #176942",
"B  c #1D6C44",
"V  c #1D664A",
"C  c #1D6849",
"Z  c #1C7342",
"A  c #236444",
"S  c #286646",
"D  c #256D43",
"F  c #2A6944",
"G  c #246949",
"H  c #247442",
"J  c #2A7644",
"K  c #247C45",
"L  c #2B7B45",
"P  c #27754D",
"I  c #257C49",
"U  c #2B7B4C",
"Y  c #327744",
"T  c #347E45",
"R  c #33734B",
"E  c #39764B",
"W  c #337D4B",
"Q  c #3A7F4E",
"!  c #216E53",
"~  c #326C54",
"^  c #267554",
"/  c #2A7552",
"(  c #297857",
")  c #2D7B54",
"_  c #357754",
"`  c #387763",
"'  c #407860",
"]  c #258015",
"[  c #26842F",
"{  c #2B842C",
"}  c #338C2A",
"|  c #2A9427",
" . c #2D8534",
".. c #24833E",
"X. c #2D823C",
"o. c #2D8A3C",
"O. c #328434",
"+. c #3A8437",
"@. c #338B35",
"#. c #3B8E36",
"$. c #33843C",
"%. c #338C3C",
"&. c #3D8C3E",
"*. c #339134",
"=. c #3A9231",
"-. c #35953B",
";. c #3B933D",
":. c #36993B",
">. c #3B9C3B",
",. c #438E35",
"<. c #438D3D",
"1. c #419434",
"2. c #40943D",
"3. c #409E3E",
"4. c #499C3C",
"5. c #4DB32D",
"6. c #44AA38",
"7. c #53A93C",
"8. c #4FB93B",
"9. c #55B23C",
"0. c #58B83A",
"q. c #278341",
"w. c #2B8244",
"e. c #2B8A45",
"r. c #2C834B",
"t. c #24884E",
"y. c #2C8A4A",
"u. c #348243",
"i. c #398245",
"p. c #338B44",
"a. c #3A8C44",
"s. c #32844C",
"d. c #3B814C",
"f. c #348B4B",
"g. c #3B8D4C",
"h. c #29904E",
"j. c #369545",
"k. c #3C9443",
"l. c #3D9A44",
"z. c #34954B",
"x. c #3D944C",
"c. c #3E9A4C",
"v. c #298655",
"b. c #2C8B53",
"n. c #338454",
"m. c #3C8551",
"M. c #338B54",
"N. c #3A8C52",
"B. c #34845B",
"V. c #3B835B",
"C. c #32885A",
"Z. c #2D9250",
"A. c #3C9255",
"S. c #3E9C51",
"D. c #3F905A",
"F. c #39A048",
"G. c #3CA14E",
"H. c #3FA158",
"J. c #3FA063",
"K. c #478F45",
"L. c #488E40",
"P. c #418D4B",
"I. c #439644",
"U. c #499646",
"Y. c #439C43",
"T. c #4A9C43",
"R. c #42944B",
"E. c #4A974C",
"W. c #439C4C",
"Q. c #4B9D4C",
"!. c #529448",
"~. c #519D4C",
"^. c #418F53",
"/. c #419454",
"(. c #499453",
"). c #459A53",
"_. c #4C9D54",
"`. c #42945D",
"'. c #47985A",
"]. c #559E59",
"[. c #42A344",
"{. c #4BA243",
"}. c #4CAA45",
"|. c #45A349",
" X c #4CA24C",
".X c #44AB4C",
"XX c #4DAB4C",
"oX c #53A745",
"OX c #55AB46",
"+X c #51A44C",
"@X c #53AC4D",
"#X c #59AC4C",
"$X c #4FB44B",
"%X c #53B545",
"&X c #5BB546",
"*X c #55BA45",
"=X c #55B34C",
"-X c #5CB44C",
";X c #45A353",
":X c #4CA252",
">X c #44AC51",
",X c #4CAA51",
"<X c #44A15A",
"1X c #4CA25A",
"2X c #4DAF59",
"3X c #54A452",
"4X c #53AC54",
"5X c #5CAA54",
"6X c #54A45C",
"7X c #53AC5A",
"8X c #5CAB59",
"9X c #4FB251",
"0X c #54B452",
"qX c #5AB553",
"wX c #51B952",
"eX c #59BA54",
"rX c #53B459",
"tX c #5BB25A",
"yX c #65A64E",
"uX c #62AD5E",
"iX c #60B35B",
"pX c #458D66",
"aX c #469562",
"sX c #4A9D6A",
"dX c #529B63",
"fX c #4EA566",
"gX c #52A461",
"hX c #56AA67",
"jX c #5BB262",
"kX c #5DB269",
"lX c #66AD61",
"zX c #60B362",
/* pixels */
"5Xx l h V._ j :X_.& OXQ./ m.OX$.H :X~.q I 4 pXG p.@X} { 9XN.J l.",
"yXo u.f.~ n E iX X9 9.&XN.H a.W B.zX!.6 g.s.~ $ E.qX#.} 0.oXR J ",
"5X6 Q.W.d $ +.=Xc.o.6.8.F.% 3 r.A.4XU.8 7X;.= t T.@Xg.-.5.9.m.N ",
"<X5 ;XeX@.s k.3.y.M.e.|.;X; X.s.f -.z.f rX=Xf I Y.j.M.e.| }.).5 ",
"Z.b.S.-Xl.v.I g /.7Xs.) f.#.3Xi.q -.h.b. X-Xp.( K  .:X;X..w.a.*.",
"2Xr.g T.x.C./ d &X9.l < _.-X#X$.@.0X<XL $. Xy.C.p ,.&XY.4 D 8X=X",
"4Xa = k t.H.K.z -X|.> < Q.OXk.r.z.$XU.@ p t.h.XXz L.qXp.+ d 3X+X",
"dXF c o.G.wXT.&. Xw.V ` ) : ..y.y.x.(.t u.e.>X%X&.(.c.5 2 i.L 1 ",
"Q W  X=.Y.0X-.2 e.p.gXgXh 2 Y.0Xa.p Q a. X@.XX%Xf k %.j.=XE.B ^ ",
"= W.0Xw P._.X.z.;X@.9.9.$., >.*X#.@ s 4XXXq ].k.q.W.l.l.&X+X/ N ",
"* .X0XJ ~ R X.rX|.; }.;.B P o.[.W.p 3 wX,Xi ` p c.tXp.e.,X$.C ( ",
"K >Xl.G b @ r -X X% f.w.`.sXN.M.n.U y.>Xp.v b @ 4.-Xp.5 p.$.aXfX",
"4 %.%.A A 7 O.5Xa.$.).0 {.tXu.H `.N.Z %.X.# S = T.7.O.p.k.9 tXjX",
"& I.~.s u.g.s.n.j 3X#XX {.{.: $.#X2.y ~.U.- /.s.N.d $.hXI.O 4XR.",
"  +XtX%.l.4Xf.M u.-X@X .;.Y. .Y.&X1.q tX4X{ ,X1XJ p R.tXW.g I.).",
"y x.7Xo.l.qXI.p h Y.c.Z q.XX}.Y.;.g l :X,X[ XXqXu.a u.W.f.h f.rX",
"aXs.R.q g.Q.@.u.W w N.! ! :X-X&., L D.p.k.- 1X;.$.d.J w.M.C I =X",
"kXg g j V.W s _.Q.. 3XaX^ g.OXu.h 1X1X0 x j pX1 $.6X$.[ 4XN.H [.",
"4XO +.d._ V L jX{.] 9.=Xf.h R.W f.eXY.X <.Q / m /.zX@.| 0.oXL f ",
"4X; Q.E.D # s.7XW.o.6.8.l., H n.x.XXY.8 5XP.< m ).7Xx.-.5.9.f.N ",
"1Xs :XiX$.H R.Y.y.M.o.[.XXf L s.l -.x.f tX4Xs U Q.x.C.b.*.oX'.B ",
"f.b.S.=XY.) L { k.fXv.r.%.=.3Xu.q -.f.M.>X=Xp.) l O.<XJ.w.$.a.%.",
"7Xs...[.z.B./ w 0.@XU m Q.0.#XT O.0X;XI o..Xy.B.p =.*XS.4 s #X&X",
"#Xu > I t.G.K.e &X X< < Q.OXk.r.z.$XU.= 1 t.h.,Xz <.qXf.+ 0 OX4X",
"].a Y w.G.$X4.g.1Xw.M ) W 2 k y.y.x.(.t u.e.>X%X&.(.W.5 - T T 1 ",
"m.T _.;.[.*X-.5 p.p.1XgXH 4 c.0Xa.a d.i. X@.XX%X[ l %.:.@X(.C P ",
"= W.0Xw P._.X.y.|.*.&X=Xu., >.*X#.@ s ,XXXq 6Xk...S.l.>.*X3X^ N ",
"* .XwXJ ~ R l 7X|.8 @X;.4 H o.|.).p 3 wX,Xi ' a c.rXp.y.,X$.C ^ ",
"K >Xl.G b $ r -X X% a.X.D.sXN.M.n.U y.>Xp.v b @ 4.-Xp.Z p.@.'.sX",
"Z p.%.i A t O.#Xa.g R.0 :XkXs.h A.N.H j.$.# S = T.7.O.f.k.9 tXkX",
"* P.~.q u.N.s.g.j 3X3XX {. Xq X.@X2.y Q.U.- ^.U N.c $.7XI.8 5XR.",
"  ].lX$.R.hXV.G R 8X#Xw 2.I.g I.-X1.0 uX5Xw 6XdXY p P.tXI.g (.R."
};
