/* XPM */
static char *result[] = {
/* columns rows colors chars-per-pixel */
"32 32 187 2 ",
"   c #0A000A",
".  c #190404",
"X  c #130314",
"o  c #1A0A19",
"O  c #2E0B0B",
"+  c #340D07",
"@  c #2C1106",
"#  c #31130E",
"$  c #3B1503",
"%  c #240817",
"&  c #24101E",
"*  c #351916",
"=  c #3C2E0D",
"-  c #1D193C",
";  c #241629",
":  c #392028",
">  c #46190C",
",  c #581B01",
"<  c #431E12",
"1  c #4A171B",
"2  c #46290D",
"3  c #572A06",
"4  c #55350C",
"5  c #402C1B",
"6  c #462D16",
"7  c #572518",
"8  c #4A3516",
"9  c #523716",
"0  c #6D2E08",
"q  c #762C07",
"w  c #6B360C",
"e  c #683B09",
"r  c #743E0C",
"t  c #7D3C0C",
"y  c #75380B",
"u  c #672916",
"i  c #61311B",
"p  c #783E16",
"a  c #411C2C",
"s  c #561B22",
"d  c #591D26",
"f  c #541B2A",
"g  c #4F1E36",
"h  c #542320",
"j  c #593A26",
"k  c #412130",
"l  c #532032",
"z  c #6A2E25",
"x  c #633B24",
"c  c #6B3629",
"v  c #753A26",
"b  c #5E4C14",
"n  c #584418",
"m  c #634914",
"M  c #754C1F",
"N  c #764118",
"B  c #6E581C",
"V  c #735B1A",
"C  c #77531E",
"Z  c #5B4521",
"A  c #6E4E20",
"S  c #744424",
"D  c #7A4A24",
"F  c #764A3A",
"G  c #2F1E43",
"H  c #2D284F",
"J  c #372E4C",
"K  c #372B49",
"L  c #3B314D",
"P  c #3C2C55",
"I  c #372C57",
"U  c #7E4D40",
"Y  c #8C580E",
"T  c #8B4E16",
"R  c #934D17",
"E  c #8A521A",
"W  c #995619",
"Q  c #A25C1C",
"!  c #A76607",
"~  c #B36C0E",
"^  c #AC7206",
"/  c #B67B04",
"(  c #A3631F",
")  c #A26C16",
"_  c #BB6C1E",
"`  c #B77D15",
"'  c #874F2E",
"]  c #8A5626",
"[  c #945C2E",
"{  c #9B582B",
"}  c #894C35",
"|  c #865335",
" . c #956D28",
".. c #917229",
"X. c #986834",
"o. c #917730",
"O. c #A26327",
"+. c #A9652A",
"@. c #B56E23",
"#. c #BD7925",
"$. c #AE6930",
"%. c #BD7C3C",
"&. c #C07223",
"*. c #9D6C47",
"=. c #887649",
"-. c #96774A",
";. c #9A7657",
":. c #A6774A",
">. c #AE7242",
",. c #BB7D45",
"<. c #B67A46",
"1. c #BC8100",
"2. c #B7831B",
"3. c #B98622",
"4. c #A18034",
"5. c #BC833B",
"6. c #EEBD15",
"7. c #EEB51C",
"8. c #F3BB18",
"9. c #C88A28",
"0. c #D68E2F",
"q. c #C68F3C",
"w. c #CA9838",
"e. c #D2A127",
"r. c #DBBC22",
"t. c #DCAE3C",
"y. c #DDB439",
"u. c #EAB527",
"i. c #F9BA2B",
"p. c #E0B937",
"a. c #DBC123",
"s. c #FFDA3E",
"d. c #AA8547",
"f. c #B88045",
"g. c #B99043",
"h. c #A4815A",
"j. c #C89E54",
"k. c #C4A242",
"l. c #C5AE4A",
"z. c #DBB84B",
"x. c #CEAB58",
"c. c #DEB15E",
"v. c #E1A64B",
"b. c #E0B94C",
"n. c #E7AF58",
"m. c #E4B952",
"M. c #C69F70",
"N. c #C7A568",
"B. c #D6AA65",
"V. c #D7B865",
"C. c #CDAD7A",
"Z. c #C8AA75",
"A. c #C4B479",
"S. c #DAC14B",
"D. c #DEC558",
"F. c #EFD94D",
"G. c #FFD644",
"H. c #ECC954",
"J. c #E4C75E",
"K. c #FADE5A",
"L. c #FAD75B",
"P. c #FDE444",
"I. c #FFE44C",
"U. c #FFE457",
"Y. c #FBF656",
"T. c #D9C463",
"R. c #DFD266",
"E. c #DCCD79",
"W. c #D7CA75",
"Q. c #F1CA64",
"!. c #F3D76D",
"~. c #F7DD67",
"^. c #F4D87A",
"/. c #F9E467",
"(. c #FFE878",
"). c #FFF17D",
"_. c #CBB481",
"`. c #EAD294",
"'. c #E5D49A",
"]. c #FCE685",
"[. c #FFF183",
"{. c #FBEB9B",
"}. c #FEF796",
"|. c #E6D4A6",
" X c #FFF7A9",
".X c #FFF4BB",
"XX c None",
/* pixels */
"XXXXXXXXXXXXXXXXXXXXXXXXXXXXXXXXXXXXXXXXXXXXXXXXXXXXXXXXXXXXXXXX",
"XXXXXXXXXXXXXXXXXXXXXXXXXXXXXXXXXXXXXXXXXXXXXXXXXXXXXXXXXXXXXXXX",
"XXXXXXXXXXXXXXXXXXXXXXXXXXXXXXXXXXXXXXXXXXXXXXXXXXXXXXXXXXXXXXXX",
"XXXXXXXXXXXXXXXXXXXXXXXXXXXXXXXXXXXXXXXXXXXXXXXXXXXXXXXXXXXXXXXX",
"XXXXXXXXXXXXXXXXXXXXXXXXXXXXXXXXXXXXXXXXXXXXXXXXXXXXXXXXXXXXXXXX",
"XXXXXXXXXXXXXXXXXXXXXXu S C V B V B n * : XXXXXXXXXXXXXXXXXXXXXX",
"XXXXXXXXXXXXXXXXXXc z [ c.~.F.U.K.F.S.4.9 O a XXXXXXXXXXXXXXXXXX",
"XXXXXXXXXXXXXXXX7 | B.].!./.~.D.z.a.r.y.w.E $ k XXXXXXXXXXXXXXXX",
"XXXXXXXXXXXXXXXXF B.].).).[.}.}.{.Y.s.G.2.&.T O G XXXXXXXXXXXXXX",
"XXXXXXXXXXXXXX1 ;.^.H.(.[.}. X.X.XI.G.L.W &.@.> G XXXXXXXXXXXXXX",
"XXXXXXXXXXXXXX1 h.!.e.t.m.x.x.d.d.2.` ( q _ #.2 K XXXXXXXXXXXXXX",
"XXXXXXXXXXXXXX1 *.Q.H.b.w.3.2.^ / / / ^ ~ 0.( $ L XXXXXXXXXXXXXX",
"XXXXXXXXXXXXXXs v q.(.(.J.z.y.u.7.6.6.8.i.9.w . L XXXXXXXXXXXXXX",
"XXXXXXXXXXXXXXd z Q q.V.^.}.)./.U.I.s.u.9.w O . K XXXXXXXXXXXXXX",
"XXXXXXXXXXXXXXf } $.t ] g.E.E.E.W.z.z.! y > # o J XXXXXXXXXXXXXX",
"XXXXXXXXXXXXXXf u Q n.B.e m b 8 5 4 4 , <.] @   J XXXXXXXXXXXXXX",
"XXXXXXXXXXXXXXs } +.y ] j.`.`.|.|.D.J.) 0 + * % P XXXXXXXXXXXXXX",
"XXXXXXXXXXXXXXd 0 Q v.j.r C N x j b b 3 >.' O X P XXXXXXXXXXXXXX",
"XXXXXXXXXXXXXXf } +.{ +.,.C.C.C.Z.l.k.Y p > * o I XXXXXXXXXXXXXX",
"XXXXXXXXXXXXXXl v O.&.,.{ :.-.=.=... .t [ z # X H XXXXXXXXXXXXXX",
"XXXXXXXXXXXXXXg c +.f.<.{ :.-.-.=.o...e [ 9 # X - XXXXXXXXXXXXXX",
"XXXXXXXXXXXXXXXXU X.] X.,.C._.A.A.l.k.Y N 1 * ; XXXXXXXXXXXXXXXX",
"XXXXXXXXXXXXXXXXXX| N.M.p M A Z Z n b 3 *.F % XXXXXXXXXXXXXXXXXX",
"XXXXXXXXXXXXXXXXXXXXh S Z.`.|.|.'.R.T.X.7 % XXXXXXXXXXXXXXXXXXXX",
"XXXXXXXXXXXXXXXXXXXXXXXXj j Z = 5 = 2 < XXXXXXXXXXXXXXXXXXXXXXXX",
"XXXXXXXXXXXXXXXXXXXXXXXXXXXXXXXXXXXXXXXXXXXXXXXXXXXXXXXXXXXXXXXX",
"XXXXXXXXXXXXXXXXXXXXXXXXXXXXXXXXXXXXXXXXXXXXXXXXXXXXXXXXXXXXXXXX",
"XXXXXXXXXXXXXXXXXXXXXXXXXXXXXXXXXXXXXXXXXXXXXXXXXXXXXXXXXXXXXXXX",
"XXXXXXXXXXXXXXXXXXXXXXXXXXXXXXXXXXXXXXXXXXXXXXXXXXXXXXXXXXXXXXXX",
"XXXXXXXXXXXXXXXXXXXXXXXXXXXXXXXXXXXXXXXXXXXXXXXXXXXXXXXXXXXXXXXX",
"XXXXXXXXXXXXXXXXXXXXXXXXXXXXXXXXXXXXXXXXXXXXXXXXXXXXXXXXXXXXXXXX",
"XXXXXXXXXXXXXXXXXXXXXXXXXXXXXXXXXXXXXXXXXXXXXXXXXXXXXXXXXXXXXXXX"
};
