/* XPM */
static char *result[] = {
/* columns rows colors chars-per-pixel */
"32 32 126 2 ",
"   c #0D476B",
".  c #114B6C",
"X  c #185A7C",
"o  c #275A78",
"O  c #49697F",
"+  c #255E83",
"@  c #1F6283",
"#  c #2B698C",
"$  c #376987",
"%  c #3E6C8A",
"&  c #3A738E",
"*  c #377090",
"=  c #426B85",
"-  c #476F88",
";  c #47738F",
":  c #4D738A",
">  c #53778B",
",  c #5F7E8B",
"<  c #497491",
"1  c #567997",
"2  c #547C9A",
"3  c #4E809E",
"4  c #54829E",
"5  c #5D859C",
"6  c #63849C",
"7  c #5286A7",
"8  c #5A83A2",
"9  c #5F88A6",
"0  c #6386A1",
"q  c #6985A1",
"w  c #628BA3",
"e  c #6B89AB",
"r  c #708EA9",
"t  c #6C91A4",
"y  c #6791AD",
"u  c #6C90AA",
"i  c #7392A7",
"p  c #7194AE",
"a  c #6E9AB2",
"s  c #6E99BE",
"d  c #7394B5",
"f  c #7D9CB3",
"g  c #769BBD",
"h  c #7C9BBA",
"j  c #75A1BF",
"k  c #749DC1",
"l  c #7A9EC1",
"z  c #6DA1CA",
"x  c #7AA3C4",
"c  c #72A1C9",
"v  c #7DA5C9",
"b  c #84A3B7",
"n  c #85A1BB",
"m  c #82A8BB",
"M  c #96ADBD",
"N  c #81A9C6",
"B  c #83AACC",
"V  c #8CADCC",
"C  c #8FB1C6",
"Z  c #99B5CA",
"A  c #9DBACB",
"S  c #84ACD2",
"D  c #89AFD3",
"F  c #8DB1D1",
"G  c #95B2D7",
"H  c #9FBED4",
"J  c #94BBDC",
"K  c #9EBBDB",
"L  c #ADBFCF",
"P  c #A0BAD4",
"I  c #83B8E0",
"U  c #9EC0DD",
"Y  c #ACC6D6",
"T  c #A5C3DC",
"R  c #AEC4D8",
"E  c #B5CEDE",
"W  c #B5D0DD",
"Q  c #BBD0DF",
"!  c #97C2E7",
"~  c #98C1E1",
"^  c #A2C2E2",
"/  c #ABCAE6",
"(  c #A0CFEF",
")  c #ACCCEB",
"_  c #B6CDE4",
"`  c #B9CDE2",
"'  c #B3CFEB",
"]  c #B1D2E1",
"[  c #BCD4E4",
"{  c #B5D1EB",
"}  c #BCD5EC",
"|  c #A4D0F3",
" . c #BFD9F2",
".. c #C2CFD6",
"X. c #C5CFD8",
"o. c #C1D3E2",
"O. c #C7DDE7",
"+. c #CCDFED",
"@. c #C5DFF4",
"#. c #CBDDF1",
"$. c #C8D8F8",
"%. c #D2DFF1",
"&. c #CCE0EB",
"*. c #D6E3EF",
"=. c #CEE4F4",
"-. c #C5E1F8",
";. c #CCE3F9",
":. c #D3E2F3",
">. c #DCE6F3",
",. c #DCEBF5",
"<. c #D7EDF9",
"1. c #DDECFB",
"2. c #E2ECF5",
"3. c #E2EEF9",
"4. c #EAEEF8",
"5. c #E3F2F6",
"6. c #EBF1F3",
"7. c #E5F2FB",
"8. c #EBF4FA",
"9. c #EEF8FB",
"0. c #F3F0F2",
"q. c #FFFEF6",
"w. c #F2F7FA",
"e. c #F5FBFD",
"r. c #FCFEFD",
"t. c None",
/* pixels */
"t.t.t.t.t.t.t.t.t.t.t.t.t.t.t.t.t.t.t.t.t.t.t.t.t.t.t.t.t.t.t.t.",
"t.t.t.t.t.t.t.t.t.t.t.t.t.t.t.t.t.t.t.t.t.t.t.t.t.t.t.t.t.t.t.t.",
"t.t.t.t.t.t.t.t.t.t.t.t.t.e e q 0 t.t.t.t.t.t.t.t.t.t.t.t.t.t.t.",
"t.t.t.t.t.t.t.t.t.t.x B / { _ ` [ T x l t.t.t.t.t.t.t.t.t.t.t.t.",
"t.t.t.t.t.t.t.t.t.P :.2.e.r.e.e.e.w.>.+.G t.t.t.t.t.t.t.t.t.t.t.",
"t.t.t.t.t.t.t.t.=.9.r.q.q.r.q.q.r.q.r.r.8.o.t.t.t.t.t.t.t.t.t.t.",
"t.t.t.t.t.t.t.} e.r.r.r.r.r.r.r.r.r.r.r.q.9.R t.t.t.t.t.t.t.t.t.",
"t.t.t.t.t.t.K ,.q.r.r.r.r.r.r.e.r.r.r.r.r.9.#.V t.t.t.t.t.t.t.t.",
"t.t.t.t.t.t.^ e.r.r.r.r.r.r.r.r.r.r.e.r.r.r.8.D t.t.t.t.t.t.t.t.",
"t.t.t.t.t.t.T e.r.e.2.e.r.r.r.r.r.r.9.8.r.e.8.F t.t.t.t.t.t.t.t.",
"t.t.t.t.t.F =.r.e.R 2 A w.r.e.w.e.7.b 1 &.e.e.[ h t.t.t.t.t.t.t.",
"t.t.t.t.t.F 7.r.3.< # 4 o.8.2.2.8.A 3 + p 9.r.=.d t.t.t.t.t.t.t.",
"t.t.t.t.t.D 3.r.<.$ @ & ] <.%.:.3.C * X w 7.r.:.d t.t.t.t.t.t.t.",
"t.t.t.t.t.D 8.r.5.5   % &.e.7.8.e.Y o . m 9.r.:.d t.t.t.t.t.t.t.",
"t.t.t.t.t.D 7.r.r.O.f E e.r.r.e.e.9.A b 3.r.r.:.g t.t.t.t.t.t.t.",
"t.t.t.t.t.B 8.r.q.e.e.e.r.r.r.r.r.r.e.e.r.r.e.:.g t.t.t.t.t.t.t.",
"t.t.t.t.t.B 8.r.r.r.r.6...3.7.5.,.X.w.r.r.r.r.:.l t.t.t.t.t.t.t.",
"t.t.t.t.t.S 7.r.r.r.r.5.M e u t i L w.r.r.r.q.:.l t.t.t.t.t.t.t.",
"t.t.t.t.t.B 7.r.e.r.r.r.5.Q W W [ 9.e.r.w.e.q.:.h t.t.t.t.t.t.t.",
"t.t.t.t.t.V 8.r.6.w.r.q.r.e.r.r.e.r.q.q.9.w.e.:.n t.t.t.t.t.t.t.",
"t.t.t.t., E 9.9.6.e.r.r.6.r.r.r.q.0.q.r.e.4.w.8.H t.t.t.t.t.t.t.",
"t.t.t.t.> } 1.:.4.e.e.9.2.e.e.r.e.2.e.e.r.2.,.1.P > t.t.t.t.t.t.",
"t.t.t.t.a  .$.{ :.9.8.:.>.e.r.q.e.%.>.w.8.#.{ @.{ 8 t.t.t.t.t.t.",
"t.t.t.O g | S v / ;.@.) @.2.9.8.3.' ) ;.#.K c I ( 0 t.t.t.t.t.t.",
"t.t.t.t.5 4 8 8 g ~ I g G } =.;.' v c ! J p 8 7 4 6 t.t.t.t.t.t.",
"t.t.t.t.t.t.t.t.w 2 2 p y x N v x y w 2 1 t.t.t.t.t.t.t.t.t.t.t.",
"t.t.t.t.t.t.t.t.t.t.t.t.t.; = : : t.t.t.t.t.t.t.t.t.t.t.t.t.t.t.",
"t.t.t.t.t.t.t.t.t.t.t.t.t.t.t.t.t.t.t.t.t.t.t.t.t.t.t.t.t.t.t.t.",
"t.t.t.t.t.t.t.t.t.t.t.t.t.t.t.t.t.t.t.t.t.t.t.t.t.t.t.t.t.t.t.t.",
"t.t.t.t.t.t.t.t.t.t.t.t.t.t.t.t.t.t.t.t.t.t.t.t.t.t.t.t.t.t.t.t.",
"t.t.t.t.t.t.t.t.t.t.t.t.t.t.t.t.t.t.t.t.t.t.t.t.t.t.t.t.t.t.t.t.",
"t.t.t.t.t.t.t.t.t.t.t.t.t.t.t.t.t.t.t.t.t.t.t.t.t.t.t.t.t.t.t.t."
};
