/* XPM */
static char *result[] = {
/* columns rows colors chars-per-pixel */
"32 32 122 2 ",
"   c #0A496E",
".  c #184F6E",
"X  c #17557C",
"o  c #396887",
"O  c #4B759B",
"+  c #527B94",
"@  c #417EA1",
"#  c #537EA3",
"$  c #527BA8",
"%  c #518293",
"&  c #50809A",
"*  c #5B8599",
"=  c #518B9C",
"-  c #4E83A4",
";  c #5286A4",
":  c #5388A0",
">  c #588BAC",
",  c #4C8BB5",
"<  c #538CB2",
"1  c #5D8BBE",
"2  c #5B92B3",
"3  c #5D97BD",
"4  c #5F9DB9",
"5  c #628CA1",
"6  c #6598AE",
"7  c #6194B3",
"8  c #629DB6",
"9  c #6791BF",
"0  c #6C93B9",
"q  c #6B9AB9",
"w  c #7F9EB4",
"e  c #7397BC",
"r  c #69A4BF",
"t  c #72A2BF",
"y  c #78A1B8",
"u  c #5B8EC0",
"i  c #6098C7",
"p  c #769FC2",
"a  c #5AAAD3",
"s  c #62A1C1",
"d  c #6FA4C2",
"f  c #7CA6CA",
"g  c #6AA7D4",
"h  c #65ABD7",
"j  c #67AFD8",
"k  c #6FB1DB",
"l  c #7FB0D2",
"z  c #72B9D7",
"x  c #7FB1DF",
"c  c #72BDDD",
"v  c #71C5E0",
"b  c #83AABC",
"n  c #8BACBC",
"m  c #91ABBD",
"M  c #84AAC4",
"N  c #81A7CB",
"B  c #87B1C3",
"V  c #8EB3CB",
"C  c #9ABACE",
"Z  c #89ACD0",
"A  c #87B2D7",
"S  c #8AB5D6",
"D  c #85BFD5",
"F  c #8EB8D2",
"G  c #8DB6D8",
"H  c #8DBBDC",
"J  c #93B5D5",
"K  c #95B9D8",
"L  c #95BFE3",
"P  c #99C2DE",
"I  c #B6CBD7",
"U  c #B5CDDA",
"Y  c #9FC4E3",
"T  c #9BC9E6",
"R  c #AEC6E3",
"E  c #A5CAE3",
"W  c #ABC9E4",
"Q  c #A3CBEA",
"!  c #ADCCE9",
"~  c #ADD0EE",
"^  c #BED7E5",
"/  c #BDD5EA",
"(  c #BDD8EF",
")  c #AED4F3",
"_  c #BAD5F1",
"`  c #BED9F8",
"'  c #BFE0F1",
"]  c #C4D3E5",
"[  c #CBDDE5",
"{  c #C1D5EC",
"}  c #C9DCEB",
"|  c #C3DCF0",
" . c #CCDDF5",
".. c #C3DDF9",
"X. c #DCE7ED",
"o. c #C5E1F2",
"O. c #CDE2F7",
"+. c #C3E8F6",
"@. c #CEE9F7",
"#. c #CDE3FB",
"$. c #D2E3F5",
"%. c #DAE6F1",
"&. c #DDE9F5",
"*. c #D4E7FE",
"=. c #D8E6FB",
"-. c #DCECF9",
";. c #DEF1FE",
":. c #E9EBEF",
">. c #F1F0EE",
",. c #E4EEF6",
"<. c #E8ECF3",
"1. c #E2EDFC",
"2. c #EDF3F5",
"3. c #E5F2FB",
"4. c #ECF5FB",
"5. c #EDFAFF",
"6. c #F5F5F4",
"7. c #FEFEF7",
"8. c #F3F6F8",
"9. c #F5FBFD",
"0. c #FDFEFE",
"q. c None",
/* pixels */
"q.q.q.q.q.q.q.q.q.q.q.q.q.q.q.q.q.q.q.q.q.q.q.q.q.q.q.q.q.q.q.q.",
"q.q.q.q.q.q.q.q.q.q.q.q.q.q.q.q.q.q.q.q.q.q.q.q.q.q.q.q.q.q.q.q.",
"q.q.q.q.q.q.q.q.q.q.q.q.q.a h g g g h q.q.q.q.q.q.q.q.q.q.q.q.q.",
"q.q.q.q.q.q.q.q.q.q.q.x H _ 1.1.1.3.o.H z q.q.q.q.q.q.q.q.q.q.q.",
"q.q.q.q.q.q.q.q.q.D ! &.5.9.0.0.9.0.9.9.-.~ v q.q.q.q.q.q.q.q.q.",
"q.q.q.q.q.q.q.q.q.o.0.0.0.7.0.0.0.0.0.0.0.9.+.c q.q.q.q.q.q.q.q.",
"q.q.q.q.q.q.q.q.K 5.0.7.0.0.0.0.0.0.0.0.0.0.9.T q.q.q.q.q.q.q.q.",
"q.q.q.q.q.q.q.s ( 9.7.7.0.0.9.0.0.0.0.0.0.0.7.@.j q.q.q.q.q.q.q.",
"q.q.q.q.q.q.q.d $.0.7.0.9.0.9.0.0.0.0.0.0.0.0.-.k q.q.q.q.q.q.q.",
"q.q.q.q.q.q.q.F -.0.9.U U 9.0.0.0.0.0.0.0.0.0.4.L q.q.q.q.q.q.q.",
"q.q.q.q.q.q.q.E 4.9.U o + U 0.0.0.0.0.0.0.0.0.9._ q.q.q.q.q.q.q.",
"q.q.q.q.q.q.q.E X.1.M X ; n 9.0.0.0.0.0.0.0.0.0.{ q.q.q.q.q.q.q.",
"q.q.q.q.q.q.q.E 4.9.V   . n 9.0.0.0.0.0.0.0.0.0./ q.q.q.q.q.q.q.",
"q.q.q.q.q.q.q.W 9.0.} + + [ 0.0.0.0.0.0.0.0.0.0./ 2 q.q.q.q.q.q.",
"q.q.q.q.q.q.q.R 0.7.9.&.X.9.0.0.0.0.0.0.0.0.0.0./ 8 q.q.q.q.q.q.",
"q.q.q.q.q.q.q.W 9.<.6.0.0.0.0.0.0.0.0.0.0.0.9.0./ r q.q.q.q.q.q.",
"q.q.q.q.q.q.1 f C m X.0.0.0.0.0.0.0.0.0.0.0.0.0.{ d q.q.q.q.q.q.",
"q.q.q.q.q.q.1 0 b ^ 9.0.0.0.0.0.0.0.0.0.9.0.0.0.] t q.q.q.q.q.q.",
"q.q.q.q.q.q.9 R 8.8.>.0.0.7.0.0.0.0.0.0.0.8.8.0.] y q.q.q.q.q.q.",
"q.q.q.q.q.q.e } 9.2.6.0.9.9.9.0.0.0.6.0.0.8.2.9.%.b q.q.q.q.q.q.",
"q.q.q.q.q.q.0 -.3.&.9.0.9.<.0.0.0.0.<.9.0.0.1.,.;.b q.q.q.q.q.q.",
"q.q.q.q.q.$ N O. . .9.9.,.%.6.0.0.9.%.1.9.9.$.| #.F : q.q.q.q.q.",
"q.q.q.q.q.O Y ! S Y O.-.{ { ,.9.9.3.} ] =.%.R S ! Q ; q.q.q.q.q.",
"q.q.q.q.q.$ i 3 @ 3 Y _ S A ` =.*...K Z ) Q p - 2 4 5 q.q.q.q.q.",
"q.q.q.q.q.q.q.q.q.- < , < 2 A P P S q 7 > > 6 q.q.= q.q.q.q.q.q.",
"q.q.q.q.q.q.q.q.q.q.q.q.q.q.% & * * B q.q.q.q.q.q.q.q.q.q.q.q.q.",
"q.q.q.q.q.q.q.q.q.q.q.q.q.q.q.q.q.q.q.q.q.q.q.q.q.q.q.q.q.q.q.q.",
"q.q.q.q.q.q.q.q.q.q.q.q.q.q.q.q.q.q.q.q.q.q.q.q.q.q.q.q.q.q.q.q.",
"q.q.q.q.q.q.q.q.q.q.q.q.q.q.q.q.q.q.q.q.q.q.q.q.q.q.q.q.q.q.q.q.",
"q.q.q.q.q.q.q.q.q.q.q.q.q.q.q.q.q.q.q.q.q.q.q.q.q.q.q.q.q.q.q.q.",
"q.q.q.q.q.q.q.q.q.q.q.q.q.q.q.q.q.q.q.q.q.q.q.q.q.q.q.q.q.q.q.q.",
"q.q.q.q.q.q.q.q.q.q.q.q.q.q.q.q.q.q.q.q.q.q.q.q.q.q.q.q.q.q.q.q."
};
