/* XPM */
static char *result[] = {
/* columns rows colors chars-per-pixel */
"32 32 156 2 ",
"   c #094867",
".  c #4A6778",
"X  c #456879",
"o  c #49687A",
"O  c #5B6E7C",
"+  c #53717B",
"@  c #5F7278",
"#  c #6D7379",
"$  c #757677",
"%  c #787677",
"&  c #75767A",
"*  c #7A7F7E",
"=  c #817F7F",
"-  c #206288",
";  c #2D698E",
":  c #3C6D87",
">  c #3F7690",
",  c #4E7587",
"<  c #4B738B",
"1  c #547381",
"2  c #5D7785",
"3  c #557588",
"4  c #447292",
"5  c #4D7B93",
"6  c #527A94",
"7  c #507C98",
"8  c #747A80",
"9  c #54809B",
"0  c #7D8483",
"q  c #798188",
"w  c #628294",
"e  c #698793",
"r  c #6F8893",
"t  c #628499",
"y  c #648C9F",
"u  c #778890",
"i  c #5885A1",
"p  c #5F89A0",
"a  c #5D90AD",
"s  c #658CA4",
"d  c #6B8EA3",
"f  c #618CAD",
"g  c #6B8EA9",
"h  c #6792AE",
"j  c #7295AB",
"k  c #7B9CAE",
"l  c #668AB1",
"z  c #6D8FB1",
"x  c #6692B0",
"c  c #6E90B3",
"v  c #6B99B4",
"b  c #6596B8",
"n  c #6F99BA",
"m  c #7097B5",
"M  c #7893B1",
"N  c #7497BC",
"B  c #7A9ABB",
"V  c #7BA2BC",
"C  c #709BC3",
"Z  c #7A9EC3",
"A  c #7CA3C7",
"S  c #7CA2C8",
"D  c #948D8B",
"F  c #94928D",
"G  c #9A928F",
"H  c #948E90",
"J  c #8E9498",
"K  c #919393",
"L  c #9B9796",
"P  c #989897",
"I  c #969B9D",
"U  c #98999C",
"Y  c #A39E9D",
"T  c #819FBA",
"R  c #9FA0A7",
"E  c #B1ABA6",
"W  c #B1AFAB",
"Q  c #B7B1B0",
"!  c #BAB3B1",
"~  c #C2BABA",
"^  c #90ACC9",
"/  c #84B0CF",
"(  c #95B1CC",
")  c #9EB9CE",
"_  c #83B0D1",
"`  c #8DB5DA",
"'  c #93B3D5",
"]  c #99B9D5",
"[  c #93B5DD",
"{  c #98B7DD",
"}  c #9BB9D9",
"|  c #A3BCD6",
" . c #A9BED9",
".. c #BBC7CF",
"X. c #A9C1D4",
"o. c #A4C3DB",
"O. c #A8C3DA",
"+. c #AEC9DC",
"@. c #B4CDDD",
"#. c #9CC3E7",
"$. c #9DC8E3",
"%. c #A5C3E2",
"&. c #A8C3E7",
"*. c #A7C7ED",
"=. c #ABC7EC",
"-. c #AECBEA",
";. c #B3CFE2",
":. c #BDCFE3",
">. c #B4CEEC",
",. c #B8CEE8",
"<. c #A9D0EC",
"1. c #BFD1E5",
"2. c #BFD9E4",
"3. c #B6D7EE",
"4. c #BBD2EA",
"5. c #BFD9EB",
"6. c #BBD5F2",
"7. c #BDDAF5",
"8. c #BDDFF9",
"9. c #CBD5DB",
"0. c #C1DBE3",
"q. c #C2D6EE",
"w. c #C5DCEC",
"e. c #CCDDEA",
"r. c #D3DEEC",
"t. c #C4D5F4",
"y. c #C5DCF3",
"u. c #CBDCF2",
"i. c #C0DCFD",
"p. c #CEE1EE",
"a. c #D4E4EE",
"s. c #D8E7EE",
"d. c #DDE8EF",
"f. c #CDE1F2",
"g. c #CAE3FB",
"h. c #D3E3F3",
"j. c #DAE5F2",
"k. c #D4E8F5",
"l. c #DDEAF4",
"z. c #D4E4F9",
"x. c #D7E9F9",
"c. c #DBEAFA",
"v. c #F0EFEE",
"b. c #E4ECF5",
"n. c #E2EEFB",
"m. c #E9EDFF",
"M. c #EBF1F6",
"N. c #E3F2FB",
"B. c #EDF5FA",
"V. c #EDF8FE",
"C. c #F3F4F5",
"Z. c #FFFCF6",
"A. c #F3F6FA",
"S. c #F5FAFE",
"D. c #FDFEFE",
"F. c None",
/* pixels */
"F.F.F.F.F.F.F.F.F.F.F.F.F.F.F.F.F.F.F.F.F.F.F.F.F.F.F.F.F.F.F.F.",
"F.F.F.F.F.F.F.F.F.F.F.F.F.F.F.F.F.F.F.F.F.F.F.F.F.F.F.F.F.F.F.F.",
"F.F.F.F.F.F.F.F.F.F.F.F.F.F.F.F.F.F.F.F.F.F.F.F.F.F.F.F.F.F.F.F.",
"F.F.F.F.F.F.F.F.F.F.F.g ^ %.o.O.O.o.B c F.F.F.F.F.F.F.F.F.F.F.F.",
"F.F.F.F.F.F.F.F.F.F.%.5.s.S.S.S.S.V.q.,.( F.F.F.F.F.F.F.F.F.F.F.",
"F.F.F.F.F.F.F.F.) f.B.D.D.D.D.D.D.D.D.D.N.1.F.F.F.F.F.F.F.F.F.F.",
"F.F.F.F.F.F.F.F.f.S.Z.Z.D.D.D.D.D.D.D.D.D.V.@.F.F.F.F.F.F.F.F.F.",
"F.F.F.F.F.F.F. .N.D.Z.D.D.D.D.D.D.D.D.D.D.D.e.F.F.F.F.F.F.F.F.F.",
"F.F.F.F.F.F.F.4.D.D.D.D.D.D.D.D.D.D.D.D.D.D.B.[ F.F.F.F.F.F.F.F.",
"F.F.F.F.F.F.l :.D.D.D.D.D.D.D.D.D.D.S.B.S.D.B.' F.F.F.F.F.F.F.F.",
"F.F.F.F.F.F.' l.D.D.D.D.D.D.D.D.Z.A.X.s 2.Z.S.4.F.F.F.F.F.F.F.F.",
"F.F.F.F.F.F.] V.D.D.D.D.D.D.D.D.D.e.9 ; 9 l.M.y.Z F.F.F.F.F.F.F.",
"F.F.F.F.F.F.] S.D.D.D.D.D.D.D.D.D.0.> - > k.N.e.S F.F.F.F.F.F.F.",
"F.F.F.F.F.F.] S.D.D.D.D.D.D.D.Z.D.a.:   p M.D.h.S F.F.F.F.F.F.F.",
"F.F.F.F.F.F.] S.D.D.D.D.D.D.D.D.D.S.@.k p.S.D.l.S F.F.F.F.F.F.F.",
"F.F.F.F.F.F.] S.D.D.D.D.D.D.D.D.D.D.D.S.D.S.D.l.A F.F.F.F.F.F.F.",
"F.F.F.F.F.F.] S.D.D.D.D.D.D.D.D.D.D.D.D.S.9.s.p.A F.F.F.F.F.F.F.",
"F.F.F.F.F.F.| S.D.D.D.D.D.D.D.D.D.D.D.D.S...j d N F.F.F.F.F.F.F.",
"F.F.F.F.F.T q.S.D.Z.D.D.D.D.D.D.D.D.D.D.S.B.w.;.} M F.F.F.F.F.F.",
"F.F.F.F.F.T u.S.S.v.D.D.D.D.D.D.D.D.D.D.A.M.D.N.@.j F.F.F.F.F.F.",
"F.F.F.F.F.o.l.S.b.C.D.D.B.C.D.D.D.M.D.D.S.M.C.S.h.V F.F.F.F.F.F.",
"F.F.F.F.6 o.N.N.j.S.D.A.b.A.D.D.D.b.M.D.D.b.s.B.x.V F.F.F.F.F.F.",
"F.F.F.F.s 3.l.u.4.b.D.n.r.B.D.D.D.l.a.B.S.a.4.z.z.] w F.F.F.F.F.",
"F.F.F.F.s 8.t.=.&.f.N.y.,.n.D.D.V.g.>.l.c.7.#.>.g.$.< F.F.F.F.F.",
"F.F.F.F.s / _ a v %.i.*.{ t.m.A.x.>.' 6.7.` f n ` V d F.F.F.F.F.",
"F.F.F.F.F.< 5 F.j c C b x ' 7.7.<.V g m n h F.h < 9 F.F.F.F.F.F.",
"F.F.F.F.F.F.F.F.J 3 X 1 e , 5 7 7 3 r . o u E F.F.F.F.F.F.F.F.F.",
"F.F.F.F.F.W E Y D 0 * % & @ + + O # & 8 q = D ! ! ~ F.F.F.F.F.F.",
"F.F.F.F.F.F.F.F.U L L D H K J K K F F K U P R F.F.F.F.F.F.F.F.F.",
"F.F.F.F.F.F.F.F.F.F.F.F.F.F.F.F.F.F.F.F.F.F.F.F.F.F.F.F.F.F.F.F.",
"F.F.F.F.F.F.F.F.F.F.F.F.F.F.F.F.F.F.F.F.F.F.F.F.F.F.F.F.F.F.F.F.",
"F.F.F.F.F.F.F.F.F.F.F.F.F.F.F.F.F.F.F.F.F.F.F.F.F.F.F.F.F.F.F.F."
};
