/* XPM */
static char *result[] = {
/* columns rows colors chars-per-pixel */
"32 32 96 2 ",
"   c #55748D",
".  c #5B869D",
"X  c #618295",
"o  c #6C849E",
"O  c #618A9F",
"+  c #5686A2",
"@  c #5C86A4",
"#  c #5688A3",
"$  c #5E8BAC",
"%  c #5D8EB0",
"&  c #6783A0",
"*  c #638DA4",
"=  c #6B8FA0",
"-  c #648DAC",
";  c #6A8EAB",
":  c #6792A7",
">  c #7396A5",
",  c #7794A8",
"<  c #7599AA",
"1  c #6793B5",
"2  c #6A9AB6",
"3  c #6A97BA",
"4  c #6C9ABE",
"5  c #7596B5",
"6  c #769BB0",
"7  c #7998B5",
"8  c #7696B8",
"9  c #759ABA",
"0  c #799ABB",
"q  c #7EA1BB",
"w  c #749CC4",
"e  c #7D9FC7",
"r  c #7BA2C7",
"t  c #7EA5CB",
"y  c #89ABB6",
"u  c #85A1BC",
"i  c #8AA2BE",
"p  c #89ADB9",
"a  c #81A5C6",
"s  c #8AA5C2",
"d  c #8EAAC7",
"f  c #87ACCD",
"g  c #93B3CC",
"h  c #9BB4CD",
"j  c #8BB2D7",
"k  c #8BB4DA",
"l  c #96B1D6",
"z  c #9AB1D3",
"x  c #9FBAD1",
"c  c #95BBDC",
"v  c #9CBFDB",
"b  c #A0B7CE",
"n  c #AABDD9",
"m  c #99BFE1",
"M  c #A6C4D7",
"N  c #A3C4DE",
"B  c #AAC3DA",
"V  c #B9CDDF",
"C  c #9FC5E5",
"Z  c #A7C6E3",
"A  c #ACCCE5",
"S  c #A3C6E9",
"D  c #B5D3EE",
"F  c #A8D1F0",
"G  c #B3D4F3",
"H  c #BAD4F3",
"J  c #BCD9F7",
"K  c #BAD7F9",
"L  c #BFDDF8",
"P  c #C9DBE6",
"I  c #C4DCEE",
"U  c #CBDCED",
"Y  c #C4DCF4",
"T  c #CCDFF3",
"R  c #D4E1EE",
"E  c #CDE1F3",
"W  c #D4E5F5",
"Q  c #DCE7F3",
"!  c #D6E8F6",
"~  c #DBEBF6",
"^  c #D4E3F9",
"/  c #DAE6FA",
"(  c #D6E8FB",
")  c #DDEEFA",
"_  c #E3EBF4",
"`  c #EBEEF3",
"'  c #E2EDFB",
"]  c #EEF2F5",
"[  c #E3F2FD",
"{  c #ECF4FB",
"}  c #EDF9FE",
"|  c #F2F5F7",
" . c #F2F6F9",
".. c #F6FAFC",
"X. c #FEFEFE",
"o. c None",
/* pixels */
"o.o.o.o.o.o.o.o.o.o.o.o.o.o.o.o.o.o.o.o.o.o.o.o.o.o.o.o.o.o.o.o.",
"o.o.o.o.o.o.o.o.o.o.o.o.o.o.o.o.o.o.o.o.o.o.o.o.o.o.o.o.o.o.o.o.",
"o.o.o.o.o.o.o.o.o.o.o.o.o.o.o.o.o.o.o.o.o.o.o.o.o.o.o.o.o.o.o.o.",
"o.o.o.o.o.o.o.o.o.o.o.o.o.o.o.9 9 9 o.o.o.o.o.o.o.o.o.o.o.o.o.o.",
"o.o.o.o.o.o.o.o.o.o.o.o.a N A A A A Z s u o.o.o.o.o.o.o.o.o.o.o.",
"o.o.o.o.o.o.o.o.o.o.b I W | X.X.X...} Q W b o.o.o.o.o.o.o.o.o.o.",
"o.o.o.o.o.o.o.o.o.P { ..X.X.X.X.X.X.X.X.X.} U o.o.o.o.o.o.o.o.o.",
"o.o.o.o.o.o.o.o.M } X.X.X.X.X.X.X.X.X.X.X.X...V o.o.o.o.o.o.o.o.",
"o.o.o.o.o.o.o.d W X.X.X.X.X.X.X.X.X.X.X.X.X.X.~ l o.o.o.o.o.o.o.",
"o.o.o.o.o.o.o.i ' X.X.X.X.X.X.X.X.X.X.X.X.X.X.} z o.o.o.o.o.o.o.",
"o.o.o.o.o.o.o.h | X.X.X.X.X.X.X.X.X.X.X.X.X.X.} n o.o.o.o.o.o.o.",
"o.o.o.o.o.o.o.Y X.X.| | ..X.X.X.X.X.X.X...| X.X.^ 0 o.o.o.o.o.o.",
"o.o.o.o.o.o.8 I X.X...| ` ] { |  . . .` ` | X.X./ w o.o.o.o.o.o.",
"o.o.o.o.o.o.5 I X.X.X.X.X.| ] ] ] ] | ..X.X.X.X./ w o.o.o.o.o.o.",
"o.o.o.o.o.o.8 I X.X.X.X.X.X.X.X.X.X.X.X.X.X.X.X./ r o.o.o.o.o.o.",
"o.o.o.o.o.o.9 U X.X.X.X.X.X.X.X.X.X.X.X.X.X.X.X./ r o.o.o.o.o.o.",
"o.o.o.o.o.o.9 U X.X.X.X.X.X.X.X.X.X.X.X.X.X.X.X./ t o.o.o.o.o.o.",
"o.o.o.o.o.o.5 U X.X.X.X.X.X.X.X.X.X.X.X.X.X.X.X.( t o.o.o.o.o.o.",
"o.o.o.o.o.o.7 U X.X.X.X.X.X.X.X.X.X.X.X.X.....X.Q t o.o.o.o.o.o.",
"o.o.o.o.o.o.u E X.| | X.X.X.X.X.X.X.X.X.X.| | X.~ d o.o.o.o.o.o.",
"o.o.o.o.o.o.g [  .` ..X.X.` ..X.X.X.` X.X...` { } M * o.o.o.o.o.",
"o.o.o.o.o.X g ( W Q ..X. .Q ..X.X.X._ { ..X._ R Q B O o.o.o.o.o.",
"o.o.o.o.o.. F K S H ) { T E { X.X. .^ Y ' ' Y Z H G : y o.o.o.o.",
"o.o.o.o.o.. j e - f G L m C E ) ' ^ Z c Y K k % w k : p o.o.o.o.",
"o.o.o.o.o.<   o o.; 3 4 1 5 v D G C 9 : 2 2 - o.&   = o.o.o.o.o.",
"o.o.o.o.o.o.o.o.o.o.5 , o.q $ @ # # < o.> , o.o.o.o.o.o.o.o.o.o.",
"o.o.o.o.o.o.o.o.o.o.o.o.o.o.o.o.o.o.o.o.o.o.o.o.o.o.o.o.o.o.o.o.",
"o.o.o.o.o.o.o.o.o.o.o.o.o.o.o.o.o.o.o.o.o.o.o.o.o.o.o.o.o.o.o.o.",
"o.o.o.o.o.o.o.o.o.o.o.o.o.o.o.o.o.o.o.o.o.o.o.o.o.o.o.o.o.o.o.o.",
"o.o.o.o.o.o.o.o.o.o.o.o.o.o.o.o.o.o.o.o.o.o.o.o.o.o.o.o.o.o.o.o.",
"o.o.o.o.o.o.o.o.o.o.o.o.o.o.o.o.o.o.o.o.o.o.o.o.o.o.o.o.o.o.o.o.",
"o.o.o.o.o.o.o.o.o.o.o.o.o.o.o.o.o.o.o.o.o.o.o.o.o.o.o.o.o.o.o.o."
};
