/* XPM */
static char *_b2dd2554b384288e272f0f408063090Oj6nw7ycPhehZ5Px[] = {
/* columns rows colors chars-per-pixel */
"32 32 161 2 ",
"   c None",
".  c #090707",
"X  c #0B0807",
"o  c #0C0908",
"O  c #110D0B",
"+  c #16110F",
"@  c #161210",
"#  c #1C1512",
"$  c #1D191D",
"%  c #221713",
"&  c #231814",
"*  c #231E1D",
"=  c #2D1F1A",
"-  c #301F19",
";  c #2D211C",
":  c #33231C",
">  c #3A261E",
",  c #3F281F",
"<  c #231E24",
"1  c #2C2424",
"2  c #23222D",
"3  c #282929",
"4  c #27262A",
"5  c #342521",
"6  c #3B2720",
"7  c #372822",
"8  c #3D2A22",
"9  c #342C2C",
"0  c #3E2E29",
"q  c #32302F",
"w  c #3B302D",
"e  c #2A2833",
"r  c #272C3E",
"t  c #2A2C3C",
"y  c #232431",
"u  c #382E32",
"i  c #2C3437",
"p  c #333333",
"a  c #3C3836",
"s  c #33333C",
"d  c #34393D",
"f  c #393431",
"g  c #432C24",
"h  c #482F26",
"j  c #422F29",
"k  c #473127",
"l  c #493127",
"z  c #45312A",
"x  c #4B3329",
"c  c #4F392E",
"v  c #51362B",
"b  c #54392E",
"n  c #453833",
"m  c #573C31",
"M  c #5B3D32",
"N  c #5B4730",
"B  c #5C4831",
"V  c #644336",
"C  c #624E37",
"Z  c #664438",
"A  c #68473B",
"S  c #69483C",
"D  c #6A563A",
"F  c #74603E",
"G  c #242D43",
"H  c #2B3144",
"J  c #383440",
"K  c #36394A",
"L  c #2F3B56",
"P  c #2F3E5F",
"I  c #303851",
"U  c #353E5A",
"Y  c #354043",
"T  c #394041",
"R  c #3E4648",
"E  c #3B4A4E",
"W  c #31415E",
"Q  c #3D4E58",
"!  c #3C4C56",
"~  c #2E4167",
"^  c #354466",
"/  c #3D4B6C",
"(  c #394C75",
")  c #3A517C",
"_  c #404141",
"`  c #454849",
"'  c #444E51",
"]  c #41485F",
"[  c #425154",
"{  c #43565C",
"}  c #48565C",
"|  c #45585E",
" . c #786541",
".. c #4C6168",
"X. c #50656C",
"o. c #516B74",
"O. c #56757E",
"+. c #837048",
"@. c #967F51",
"#. c #9E8654",
"$. c #9E8854",
"%. c #A08956",
"&. c #A6905A",
"*. c #3B5585",
"=. c #3E5984",
"-. c #3F5A88",
";. c #475D85",
":. c #435D91",
">. c #516D8C",
",. c #547484",
"<. c #5B7A84",
"1. c #567788",
"2. c #43639C",
"3. c #486AA7",
"4. c #4C6DAC",
"5. c #5075AC",
"6. c #5C7CA9",
"7. c #4E72B5",
"8. c #567DBD",
"9. c #557EC5",
"0. c #668A94",
"q. c #668C9A",
"w. c #68909A",
"e. c #6187AA",
"r. c #6C95A9",
"t. c #6E99A9",
"y. c #739EAB",
"u. c #719AA5",
"i. c #628ABE",
"p. c #7AA4B1",
"a. c #5881C3",
"s. c #5882CC",
"d. c #5D88D6",
"f. c #628EC9",
"g. c #6C99C8",
"h. c #75A6CF",
"j. c #6392E5",
"k. c #699DF6",
"l. c #6A9FFA",
"z. c #6EA0E6",
"x. c #75A8E0",
"c. c #7AB0EC",
"v. c #6CA2FE",
"b. c #7AAEF1",
"n. c #7EB7F7",
"m. c #81B2BF",
"M. c #87BAC9",
"N. c #89BECE",
"B. c #82B4C6",
"V. c #85BBE4",
"C. c #81BBF8",
"Z. c #92CDED",
"A. c #9EDAEB",
"S. c #88C4FD",
"D. c #8ECCFE",
"F. c #9FDEF6",
"G. c #9AD9FA",
"H. c #A3E4F7",
"J. c #A3E4FA",
"K. c #A7E9FD",
"L. c #A9ECFE",
/* pixels */
"                                                                ",
"  p O O O O O O O O O O O @ # o o O O O O O O O # O O O O O .   ",
"  o 7 x l l l l l l l x x c x & # h x l l l l l l l l l x 8 O   ",
"  @ z b > > > > > > > 6 8 > b = % b 8 > > > > > > > > > x l O   ",
"  o 8 x : x v v v v v v h = b = % b : g b v v v v v x > g x @   ",
"  X 8 x : M Z Z Z Z Z Z v - b = % b > c A Z Z Z Z Z V > g c @   ",
"  X 8 x : m Z S A Z Z Z v : b = & m 8 x Z Z Z Z Z Z M > g x O   ",
"  X 8 x = 8 M V Z Z m x > = b = & m : > x m V Z M b g ; g l O   ",
"  o 8 x > x 8 8 b x > 8 g > b = % b > g g > l m g 8 h > l l O   ",
"  o 8 g r s 8 k 8 8 k 5 J 2 x = % b < K 5 h 8 8 c j 9 H 5 x O   ",
"  o 8 8 *.s.:.1 x l e 3.d.L x = % v t s.7.H k m 5 ) 9.3.5 x O   ",
"  o 8 g -.n.;.8 8 8 u 6.b.L x = % v t z.i.J k 8 8 / c.5.5 x O   ",
"  o 8 8 ,.B.f > ^ / z n q.Q l = % v d t.a 8 U ) 5 8 y.r.5 x +   ",
"  o 8 8 <.{ g t 9.j.H 8 ` 3 x = % x 1 ' g 4 s.d.I g T q.7 c @   ",
"  o 8 8 <.[ > P v.l.4.* x B C ; % C C v = :.k.v.*.> d w.0 x O   ",
"  o 8 g i 3 g W C.D.f.$ b %. .; * D &.V % 5.D.S.=.> 1 Y 8 x O   ",
"  X 8 x % ; h { J.L.B.* b #.N : = c $.V & t.L.K.,.8 : # g l O   ",
"  X 8 g W r > | K.L.N.* b @.+.: % F #.V & y.L.L.<.> 2 ~ 5 x O   ",
"  X g k =.L > { H.H.<.5 j 7 b = % b 8 j > X.A.L.O.> t 2.5 x O   ",
"  X g g *.( j 9 u.M.q 8 ^ G x = % v y ( 8 9 p.m.p g U 2.5 x O   ",
"  X 8 g -.x.s g R _ z K 8.L x = % v t a.] z a [ 8 9 g.5.5 x O   ",
"  X 8 8 1.J.e.5 x x s h.G.! x = % v s Z.V.K g h 5 >.F.t.5 x O   ",
"  X 8 8 o.0.} 0 c x w ..u.E x = % v s y.o.a h h 8 ' <.0.8 x O   ",
"  X 8 k 1 0 g h g 8 h , w ; v = % b ; w 8 g 8 8 8 g z f g x O   ",
"  X 8 x : 8 8 h M m g 8 > : b 5 & b > > 8 8 b V x g j > h x O   ",
"  X 8 x : x M Z Z Z V m g : M : & b : 8 b V Z Z Z Z x : g l O   ",
"  X g b : m Z Z Z Z Z Z b 8 m = % b : l Z Z Z Z Z Z V > g l O   ",
"  @ k x : m Z Z Z Z Z Z b : b = % b : l Z Z Z Z Z Z M > g l O   ",
"  O 8 x = 8 g g g g g g 8 = b = % b : > k g g g g g g ; g x @   ",
"  X 8 b h h h h h h h h h k m = % b x c x h h h h h h h b x @   ",
"  . & : : : : 5 8 > : : : : : # + > 0 7 : : : : : : : : : = o   ",
"                                                                "
};
