/* XPM */
static char *result[] = {
/* columns rows colors chars-per-pixel */
"32 32 110 2 ",
"   c #663435",
".  c #6A3436",
"X  c #663639",
"o  c #6A3538",
"O  c #643C3C",
"+  c #6B3B3C",
"@  c #713537",
"#  c #773738",
"$  c #793639",
"%  c #733B3B",
"&  c #7C3A3C",
"*  c #6B3D40",
"=  c #7C3E40",
"-  c #7B4E50",
";  c #942E24",
":  c #92352E",
">  c #9F312B",
",  c #833C3C",
"<  c #883E3D",
"1  c #BE3836",
"2  c #C53C3D",
"3  c #DF3C3D",
"4  c #E13F3E",
"5  c #963F42",
"6  c #E23E42",
"7  c #8E4344",
"8  c #874C4D",
"9  c #944242",
"0  c #804D50",
"q  c #945356",
"w  c #A3494B",
"e  c #A94B4D",
"r  c #BB5355",
"t  c #B95853",
"y  c #B35F5F",
"u  c #9D7173",
"i  c #A86B6E",
"p  c #C64C49",
"a  c #DF4142",
"s  c #C25356",
"d  c #C6575B",
"f  c #CC5759",
"g  c #CB585A",
"h  c #D2585B",
"j  c #D95B5E",
"k  c #E44344",
"l  c #E74A47",
"z  c #E54749",
"x  c #E9464A",
"c  c #E64B4D",
"v  c #EA4C4D",
"b  c #EC4E50",
"n  c #ED5253",
"m  c #E85559",
"M  c #ED5C5D",
"N  c #F15456",
"B  c #F25957",
"V  c #F25659",
"C  c #F45B5D",
"Z  c #DB605D",
"A  c #EC5F62",
"S  c #FA5F62",
"D  c #C2676A",
"F  c #CD6E6F",
"G  c #DC696C",
"H  c #D86E70",
"J  c #D9797A",
"K  c #E46367",
"L  c #ED6165",
"P  c #EB6668",
"I  c #F36163",
"U  c #FB6365",
"Y  c #F76468",
"T  c #FF676A",
"R  c #FB6A6C",
"E  c #F66F72",
"W  c #F96F71",
"Q  c #F27276",
"!  c #FE7070",
"~  c #FC7B7D",
"^  c #AB8488",
"/  c #B98284",
"(  c #B3898C",
")  c #BC8D8F",
"_  c #BF9195",
"`  c #DD8488",
"'  c #EA868A",
"]  c #FB8183",
"[  c #FC8689",
"{  c #FE8B8D",
"}  c #FE9295",
"|  c #FE9C9E",
" . c #FE9EA0",
".. c #EAA7AA",
"X. c #FEA7AA",
"o. c #FFAAAD",
"O. c #FEAFB1",
"+. c #E0BBBE",
"@. c #FEB7B8",
"#. c #FFB9BD",
"$. c #DFBCC0",
"%. c #FFBEC3",
"&. c #FFCACD",
"*. c #FFCFD3",
"=. c #EDD1D3",
"-. c #FEDADD",
";. c #FFDDE1",
":. c #FFE3E6",
">. c #FFE4E9",
",. c None",
/* pixels */
",.,.,.,.,.,.,.,.,.,.,.,.,.,.,.,.,.,.,.,.,.,.,.,.,.,.,.,.,.,.,.,.",
",.,.,.,.,.,.,.,.,.,.,.,.,.,.,.,.,.,.,.,.,.,.,.,.,.,.,.,.,.,.,.,.",
",.,.,.,.,.,.,.,.,.,.,.,.,.,.,.,.,.,.,.,.,.,.,.,.,.,.,.,.,.,.,.,.",
",.,.,.,.,.,.,.,.,.,.,.,.,.,.,.,.,.,.,.,.,.,.,.,.,.,.,.,.,.,.,.,.",
",.,.,.,.,.,.,.,.,.,.,.,.,.,.,.,.,.,.,.,.,.,.,.,.,.,.,.,.,.,.,.,.",
",.,.,.,.,.,.,.,.,.,.,.,.,.,.,.,.,.,.,.,.,.,.,.,.,.,.,.,.,.,.,.,.",
",.,.,.,.,.,.,.,.. + + X ,.,.,.,.o @ @   ,.,.,.,.,.,.,.,.,.,.,.,.",
",.,.,.,.,.,.,.* ^ $.$._ 0 X + % y H G r $ ,.,.,.,.,.,.,.,.,.,.,.",
",.,.,.,.,.,.X ( >.>.-.&...8 + J ~ I n C g @ ,.,.,.,.,.,.,.,.,.,.",
",.,.,.,.,.,.- =.>.-.&.@.X.` F ~ M v z k M 9 ,.,.,.,.,.,.,.,.,.,.",
",.,.,.,.,.,.u :.-.&.#.X.} { ] I n v z 4 v r X ,.,.,.,.,.,.,.,.,.",
",.,.,.,.,.X ( ;.&.#.X.| [ ~ R B b c k k k f % ,.,.,.,.,.,.,.,.,.",
",.,.,.,.,.+ ) &.#.o.| { ~ Y C n v v k 4 k h % ,.,.,.,.,.,.,.,.,.",
",.,.,.,.,.+ / &.o. .} ] R I B b v v k 4 k f % ,.,.,.,.,.,.,.,.,.",
",.,.,.,.,.,.i O. .} [ Q Y C B n c k k 4 l s o ,.,.,.,.,.,.,.,.,.",
",.,.,.,.,.,.q  .} [ t : M C B n > ; 3 3 v e X ,.,.,.,.,.,.,.,.,.",
",.,.,.,.,.,.- ' [ ~ Z p C C N b 2 1 6 3 m 7 ,.,.,.,.,.,.,.,.,.,.",
",.,.,.,.,.,.  D ] ! T U C B N v c z 3 k j $ ,.,.,.,.,.,.,.,.,.,.",
",.,.,.,.,.,.,.7 W T U S C V N v z k 3 n e X ,.,.,.,.,.,.,.,.,.,.",
",.,.,.,.,.,.,.. f R U S C B n v x k z j # ,.,.,.,.,.,.,.,.,.,.,.",
",.,.,.,.,.,.,.,., K U U V n n v z k M 9   ,.,.,.,.,.,.,.,.,.,.,.",
",.,.,.,.,.,.,.,.X 9 L U B B b z v M e o ,.,.,.,.,.,.,.,.,.,.,.,.",
",.,.,.,.,.,.,.,.,.o 7 K U n b m L w o ,.,.,.,.,.,.,.,.,.,.,.,.,.",
",.,.,.,.,.,.,.,.,.,.  $ r L L d < o ,.,.,.,.,.,.,.,.,.,.,.,.,.,.",
",.,.,.,.,.,.,.,.,.,.,.,.  & 5   O ,.,.,.,.,.,.,.,.,.,.,.,.,.,.,.",
",.,.,.,.,.,.,.,.,.,.,.,.,.,.,.,.,.,.,.,.,.,.,.,.,.,.,.,.,.,.,.,.",
",.,.,.,.,.,.,.,.,.,.,.,.,.,.,.,.,.,.,.,.,.,.,.,.,.,.,.,.,.,.,.,.",
",.,.,.,.,.,.,.,.,.,.,.,.,.,.,.,.,.,.,.,.,.,.,.,.,.,.,.,.,.,.,.,.",
",.,.,.,.,.,.,.,.,.,.,.,.,.,.,.,.,.,.,.,.,.,.,.,.,.,.,.,.,.,.,.,.",
",.,.,.,.,.,.,.,.,.,.,.,.,.,.,.,.,.,.,.,.,.,.,.,.,.,.,.,.,.,.,.,.",
",.,.,.,.,.,.,.,.,.,.,.,.,.,.,.,.,.,.,.,.,.,.,.,.,.,.,.,.,.,.,.,.",
",.,.,.,.,.,.,.,.,.,.,.,.,.,.,.,.,.,.,.,.,.,.,.,.,.,.,.,.,.,.,.,."
};
