/* XPM */
static char *result[] = {
/* columns rows colors chars-per-pixel */
"32 32 210 2 ",
"   c #1A141A",
".  c #3B040D",
"X  c #28150C",
"o  c #3A1A0A",
"O  c #240310",
"+  c #361F10",
"@  c #3C2211",
"#  c #1E1727",
"$  c #150D38",
"%  c #080B3A",
"&  c #382E25",
"*  c #39342E",
"=  c #3D3733",
"-  c #36393B",
";  c #3C3A36",
":  c #5D0E09",
">  c #451505",
",  c #4C1B02",
"<  c #491F0A",
"1  c #4A130B",
"2  c #531C03",
"3  c #5C110B",
"4  c #541606",
"5  c #5F0F10",
"6  c #591618",
"7  c #610D0C",
"8  c #6B0E0C",
"9  c #6E1409",
"0  c #73130E",
"q  c #740913",
"w  c #7A0715",
"e  c #661818",
"r  c #680E16",
"t  c #4D2401",
"y  c #492407",
"u  c #552304",
"i  c #5E210F",
"p  c #492616",
"a  c #5F261E",
"s  c #4E3011",
"d  c #622C04",
"f  c #602E08",
"g  c #662307",
"h  c #66330E",
"j  c #7B3706",
"k  c #64221E",
"l  c #682118",
"z  c #673512",
"x  c #451B24",
"c  c #5A1F2B",
"v  c #750D2A",
"b  c #651820",
"n  c #690A32",
"m  c #48292E",
"M  c #582625",
"N  c #43332E",
"B  c #463933",
"V  c #732921",
"C  c #66352A",
"Z  c #623432",
"A  c #793923",
"S  c #564337",
"D  c #6F4126",
"F  c #674B31",
"G  c #73593F",
"H  c #100742",
"J  c #05055A",
"K  c #091156",
"L  c #1C1253",
"P  c #080B4B",
"I  c #210750",
"U  c #300A55",
"Y  c #311D55",
"T  c #252840",
"R  c #302D43",
"E  c #343946",
"W  c #060766",
"Q  c #0E177C",
"!  c #010877",
"~  c #271066",
"^  c #361065",
"/  c #560E48",
"(  c #4D1268",
")  c #52127D",
"_  c #6C106E",
"`  c #454649",
"'  c #5C4B48",
"]  c #4E4D52",
"[  c #474856",
"{  c #585A5C",
"}  c #595455",
"|  c #644041",
" . c #665146",
".. c #6B5A53",
"X. c #7B5959",
"o. c #7A5E49",
"O. c #716351",
"+. c #4A4F72",
"@. c #51507B",
"#. c #56596C",
"$. c #5F6364",
"%. c #63676A",
"&. c #796366",
"*. c #75666B",
"=. c #7B7468",
"-. c #73737A",
";. c #797B7D",
":. c #767673",
">. c #820D04",
",. c #8B130F",
"<. c #9C120B",
"1. c #981409",
"2. c #920B13",
"3. c #940415",
"4. c #900F13",
"5. c #AD0D0F",
"6. c #B9090D",
"7. c #BB1105",
"8. c #A40514",
"9. c #AA0116",
"0. c #A3011A",
"q. c #A31410",
"w. c #863707",
"e. c #930F2A",
"r. c #811025",
"t. c #AD172B",
"y. c #C80B09",
"u. c #DD0F03",
"i. c #D90D07",
"p. c #C7170C",
"a. c #D3130A",
"s. c #D51C0D",
"d. c #DE1611",
"f. c #D51E11",
"g. c #EE1503",
"h. c #EE1A0B",
"j. c #E61504",
"k. c #F51C05",
"l. c #FC1E04",
"z. c #E41E10",
"x. c #EC210B",
"c. c #E7210A",
"v. c #F72303",
"b. c #FB2102",
"n. c #FC2108",
"m. c #F22108",
"M. c #DE3F33",
"N. c #98440B",
"B. c #8E4416",
"V. c #924911",
"C. c #AF5108",
"Z. c #A24410",
"A. c #B0500E",
"S. c #9D422B",
"D. c #85522D",
"F. c #864A31",
"G. c #9A4C37",
"H. c #B65D2A",
"J. c #81603F",
"K. c #B4642F",
"L. c #8E406A",
"P. c #88797F",
"I. c #C36253",
"U. c #010A85",
"Y. c #1F0B86",
"T. c #181F87",
"R. c #151C9F",
"E. c #31148E",
"W. c #312295",
"Q. c #040FA5",
"!. c #1016AE",
"~. c #0714B0",
"^. c #1A16B0",
"/. c #0413A8",
"(. c #202CAA",
"). c #312CA8",
"_. c #2B34B3",
"`. c #4B148E",
"'. c #481390",
"]. c #575A92",
"[. c #7478AF",
"{. c #6263BB",
"}. c #091AC3",
"|. c #171CD0",
" X c #181ACA",
".X c #2419CD",
"XX c #1825CA",
"oX c #182ADD",
"OX c #1924DA",
"+X c #2335D2",
"@X c #132AE3",
"#X c #1329EB",
"$X c #1D20E0",
"%X c #1B32F4",
"&X c #1D37F9",
"*X c #162BF4",
"=X c #2136FE",
"-X c #2038FC",
";X c #213AF4",
":X c #9C9D9D",
">X c #9495AC",
",X c #E7A9A6",
"<X c #CACDDC",
"1X c #D8D8DC",
"2X c #EDE0DD",
"3X c #FCE3DA",
"4X c #CDCFE4",
"5X c #F6F9FB",
"6X c #ECEBE8",
"7X c None",
/* pixels */
"7X7X7X7X7X7X7X7X7X7X7X7X7X7X7X7X7X7X7X7X7X7X7X7X7X7X7X7X7X7X7X7X",
"7X7X7X7X7X7X7X7X7X7X7X7X7X7X7X7X7X7X7X7X7X7X7X7X7X7X7X7X7X7X7X7X",
"7X7X7X7X7X7X7X7X7X7X7X7X7X7X7X7 : 6 a 7X7X7X7X7X7X7X7X7X7X7X7X7X",
"7X7X7X7X7X7X7X7X7X7X7X7Xk 0 1.p.p.p.1.l Z 7X7X7X7X7X7X7X7X7X7X7X",
"7X7X7X7X7X7X7X7X7X7X7Xl q.f.x.v.b.b.m.f.,.C &.7X7X7X7X7X7X7X7X7X",
"7X7X7X7X7X7X7X7X7X7X3 1.c.n.b.b.b.b.b.m.z.q.M ;.7X7X7X7X7X7X7X7X",
"7X7X7X7X7X7X7X7X7X7X8 s.b.b.k.k.k.k.v.b.l.s.7 ..7X7X7X7X7X7X7X7X",
"7X7X7X7X7X7X7X7X7Xm ,.x.b.l.g.u.u.u.g.l.b.c.>.| 7X7X7X7X7X7X7X7X",
"7X7X7X7X7X7X7X7X7X7 p.m.b.k.g.g.j.j.g.l.l.n.7.6 *.7X7X7X7X7X7X7X",
"7X7X7X7X7X7X7X7X7X8 a.l.m.n.l.l.l.l.l.l.n.h.p.r &.7X7X7X7X7X7X7X",
"7X7X7X7X7X7X7X7X' 3 6.i.h.k.n.l.l.l.b.b.h.a.5.e ..7X7X7X7X7X7X7X",
"7X7X7X7X7X7X7X=.o.S.2.9.y.y.a.d.d.s.a.y.6.9.3.G.G 7X7X7X7X7X7X7X",
"7X7X7X7X7X7X7XO.J.K.9 q 3.3.0.8.8.8.9.0.3.>.8 K.D. .7X7X7X7X7X7X",
"7X7X7X7X7X7X7X=.F B.g 4 : 8 q q q 8 q q 7 2 f B.D 7X7X7X7X7X7X7X",
"7X7X7X7X7X7X7X:.& o h d 2 2 , > > , , , t u z C ..7X7X7X7X7X7X7X",
"7X7X7X7X7X7X%.] ` X X , 2 u t t t 2 2 u t s S :.7X7X7X7X7X7X7X7X",
"7X7X7X7X7X%.S [.*.e . O m k 4 g V c x k 1 m P.7X7X7X7X7X7X7X7X7X",
"7X7X7X7X7X$.; %.X.e.n U ~ / r.v ( E.^ v 3.b  .7X7X7X7X7X7X7X7X7X",
"7X7X7X7X7X7X{ - & v / Y.^.`._ '. X|.`.t.M.I.J.%.7X7X7X7X7X7X7X7X",
"7X7X7X7X7X7X7X:.] c L !.oXOX.X$X#XOX'.L.,X3X2X:X%.7X7X7X7X7X7X7X",
"7X7X7X7X7X7X7X7X7X#.J XX-X%X*X%X&X%XXX{.4X5X5X6X;.7X7X7X7X7X7X7X",
"7X7X7X7X7X7X7X7X7X].Q oX-X-X-X&X&X-X@X(.[.<X6X1X-.7X7X7X7X7X7X7X",
"7X7X7X7X7X7X7X7X7X+.Q @X%X&X;X;X-X=X#X~.T.].>X-.{ 7X7X7X7X7X7X7X",
"7X7X7X7X7X7X7X7X7X[ L W.)._.+X;X&X@X}.Q.! P - [ 7X7X7X7X7X7X7X7X",
"7X7X7X7X7X7X7X7X7XN 1 A F.Z Y !.}.Q.U.U.W % E 7X7X7X7X7X7X7X7X7X",
"7X7X7X7X7X7X7X7X} o j C.A.Z.g $ K J W W J $ [ 7X7X7X7X7X7X7X7X7X",
"7X7X7X7X7X7X7X7X} s V.Z.Z.V.u & ` R $ H % # ] 7X7X7X7X7X7X7X7X7X",
"7X7X7X7X7X7X7X7X7Xs j w.w.d + 7X7X7X*   # = 7X7X7X7X7X7X7X7X7X7X",
"7X7X7X7X7X7X7X7X7XS p < y @ B 7X7X7X7X; 7X7X7X7X7X7X7X7X7X7X7X7X",
"7X7X7X7X7X7X7X7X7X7X7X= = 7X7X7X7X7X7X7X7X7X7X7X7X7X7X7X7X7X7X7X",
"7X7X7X7X7X7X7X7X7X7X7X7X7X7X7X7X7X7X7X7X7X7X7X7X7X7X7X7X7X7X7X7X",
"7X7X7X7X7X7X7X7X7X7X7X7X7X7X7X7X7X7X7X7X7X7X7X7X7X7X7X7X7X7X7X7X"
};
