/* XPM */
static char *result[] = {
/* columns rows colors chars-per-pixel */
"32 32 223 2 ",
"   c #1D1100",
".  c #14101B",
"X  c #290D02",
"o  c #341B0C",
"O  c #381708",
"+  c #301C10",
"@  c #392517",
"#  c #272719",
"$  c #1C0A38",
"%  c #1C172A",
"&  c #3C0A26",
"*  c #2C0E31",
"=  c #1F213A",
"-  c #3B2A24",
";  c #372F30",
":  c #393536",
">  c #570813",
",  c #4C1B17",
"<  c #591B1A",
"1  c #510B09",
"2  c #7E0815",
"3  c #631418",
"4  c #791A14",
"5  c #6E0F0A",
"6  c #492509",
"7  c #522409",
"8  c #562705",
"9  c #4F2911",
"0  c #5C310D",
"q  c #67360F",
"w  c #753609",
"e  c #64261A",
"r  c #673514",
"t  c #773914",
"y  c #7F291F",
"u  c #461D20",
"i  c #651B31",
"p  c #542726",
"a  c #48362C",
"s  c #473A33",
"d  c #513B3A",
"f  c #512B2A",
"g  c #7A2321",
"h  c #633539",
"j  c #6D362C",
"k  c #7C491C",
"l  c #5C452E",
"z  c #58473B",
"x  c #464237",
"c  c #664526",
"v  c #6D5120",
"b  c #6A543D",
"n  c #070346",
"m  c #070B5B",
"M  c #14164F",
"N  c #2E1552",
"B  c #3C3B57",
"V  c #302F51",
"C  c #080977",
"Z  c #0C0B74",
"A  c #270A79",
"S  c #293161",
"D  c #521953",
"F  c #72144E",
"G  c #403E55",
"H  c #623355",
"J  c #4D0A6C",
"K  c #6C2064",
"L  c #34415F",
"P  c #3C414B",
"I  c #544643",
"U  c #475156",
"Y  c #525452",
"T  c #5B5D5C",
"R  c #565158",
"E  c #5A5255",
"W  c #655446",
"Q  c #5F645F",
"!  c #6C6358",
"~  c #77695E",
"^  c #665B70",
"/  c #646564",
"(  c #6A6E6C",
")  c #746F71",
"_  c #8C0A03",
"`  c #9B0E05",
"'  c #8A1609",
"]  c #890918",
"[  c #950C12",
"{  c #97190F",
"}  c #A80C0A",
"|  c #B40B0C",
" . c #AA110D",
".. c #A90B14",
"X. c #B71B1A",
"o. c #A11510",
"O. c #833C0A",
"+. c #8F330B",
"@. c #8A3415",
"#. c #AA221C",
"$. c #870B2A",
"%. c #9A092B",
"&. c #A0113F",
"*. c #9D3A35",
"=. c #AE3F20",
"-. c #BE282D",
";. c #C70C07",
":. c #D61507",
">. c #CB1510",
",. c #EB1304",
"<. c #E42314",
"1. c #F0311C",
"2. c #CD3A34",
"3. c #F33D2D",
"4. c #F13C31",
"5. c #834419",
"6. c #964818",
"7. c #8C521C",
"8. c #9B470F",
"9. c #A2510F",
"0. c #A85116",
"q. c #AC611B",
"w. c #87482E",
"e. c #9E4F22",
"r. c #975922",
"t. c #995737",
"y. c #82593A",
"u. c #B04D29",
"i. c #9F7D3F",
"p. c #8E6D3C",
"a. c #BE712F",
"s. c #A97334",
"d. c #D65029",
"f. c #EB4232",
"g. c #C87A2F",
"h. c #C07F34",
"j. c #C06623",
"k. c #98144A",
"l. c #9F4143",
"z. c #904F50",
"x. c #8C6643",
"c. c #8D7042",
"v. c #9B7A57",
"b. c #A67D47",
"n. c #996678",
"m. c #A7676A",
"M. c #D8594F",
"N. c #F86E50",
"B. c #D5863A",
"V. c #D9903F",
"C. c #B69259",
"Z. c #B38650",
"A. c #84807F",
"S. c #A38A64",
"D. c #ACA06E",
"F. c #B1A778",
"G. c #D58B4B",
"H. c #D49752",
"J. c #C6A25D",
"K. c #DAA45D",
"L. c #E5A55D",
"P. c #CB9C61",
"I. c #EB8B7A",
"U. c #DAA763",
"Y. c #C6A676",
"T. c #C9AE6E",
"R. c #EAB26B",
"E. c #E3AA74",
"W. c #030D86",
"Q. c #041494",
"!. c #161A90",
"~. c #281195",
"^. c #3C308A",
"/. c #0415AE",
"(. c #0912A5",
"). c #2C20B6",
"_. c #593784",
"`. c #503F90",
"'. c #48378D",
"]. c #584B9B",
"[. c #686198",
"{. c #5655AF",
"}. c #6550AC",
"|. c #091BCA",
" X c #0B1CD8",
".X c #2B1CC4",
"XX c #1925DE",
"oX c #2329C1",
"OX c #0C1EE2",
"+X c #0A1FE7",
"@X c #0F25E3",
"#X c #1124E9",
"$X c #1B35FB",
"%X c #1A33F9",
"&X c #1634EA",
"*X c #2037FF",
"=X c #273EE5",
"-X c #3243C5",
";X c #4045D7",
":X c #7C8E92",
">X c #919392",
",X c #BEA78C",
"<X c #ADA8A9",
"1X c #ED968C",
"2X c #FB938A",
"3X c #C7B69A",
"4X c #D7B58D",
"5X c #F1A38F",
"6X c #F0B980",
"7X c #C1B0B0",
"8X c #FDB5A0",
"9X c #F6D398",
"0X c #F7D189",
"qX c #F9CBAE",
"wX c #FEE6AB",
"eX c #FFF0B9",
"rX c #F5E2B8",
"tX c #B9C4C2",
"yX c #DDDFDE",
"uX c #CCC6D0",
"iX c #F7FAFA",
"pX c #F2EFED",
"aX c None",
/* pixels */
"aXaXaXaXaXaXaXaXaXaXaXaXaXaXaXaXaXaXaXaXaXaXaXaXaXaXaXaXaXaXaXaX",
"aXaXaXaXaXaXaXaXaXaXaXaXaXaXaXaXaXaXaXaXaXaXaXaXaXaXaXaXaXaXaXaX",
"aXaXaXaXaXaXaXaXaXaXaXaXh e 4 g $.e p aXaXaXaXaXaXaXaXaXaXaXaXaX",
"aXaXaXaXaXaXaXaXaXaXaX3 ' X.M.5XI.2.o.4 j aXaXaXaXaXaXaXaXaXaXaX",
"aXaXaXaXaXaXaXaXaXaX< o.,.4.2XqX8XN.<.>.' f aXaXaXaXaXaXaXaXaXaX",
"aXaXaXaXaXaXaXaXaX, [ ;.>.<.4.f.f.1.:.;. .5 d aXaXaXaXaXaXaXaXaX",
"aXaXaXaXaXaXaXaXd 5 } } _ ` :.,.,.| _ _ | [ 9 aXaXaXaXaXaXaXaXaX",
"aXaXaXaXaXaXaXaXp ] [ ' 6.w.+.d.d.t r.+.` ..> d aXaXaXaXaXaXaXaX",
"aXaXaXaXaXaXaXaXp 2 { a.K.4XY.R.E.3X4XG.=.] 1 I aXaXaXaXaXaXaXaX",
"aXaXaXaXaXaXaXaXu 5 e.R.3XY b E.C.x ~ 9XG.@.1 I aXaXaXaXaXaXaXaX",
"aXaXaXaXaXaXaX! h w g.9X3X# @ U.s.  E rXK.9.w b aXaXaXaXaXaXaXaX",
"aXaXaXaXaXaXaXb Z.q.g.H.P.p.S.9XT.c.b.U.B.q.s.S.! aXaXaXaXaXaXaX",
"aXaXaXaXaXaXaXb Z.B.G.t k U.wXeXeX0XZ.0 r.G.V.p.W aXaXaXaXaXaXaX",
"aXaXaXaXaXaXaX! c q.h.7 X v C.T.J.Z.9 X 7.B.5.l aXaXaXaXaXaXaXaX",
"aXaXaXaXaXaXaXaX! c 7.r.q O o o O O 8 k r.k l aXaXaXaXaXaXaXaXaX",
"aXaXaXaXaXaXaXaXaXz O e t.e.w q q 5.t.w., s aXaXaXaXaXaXaXaXaXaX",
"aXaXaXaXaXaXaXT I g 5 > N H l.d.u.=.D $ & , f aXaXaXaXaXaXaXaXaX",
"aXaXaXaXaXaX/ >X7X1Xf.X.F ~.J $.| %.D A J $._ 4 H / aXaXaXaXaXaX",
"aXaXaXaXaXT <XiXiXpX1X2.F '._.F &.k.K _.D 2  .#.m.A.! aXaXaXaXaX",
"aXaXaXaXaXT >XyXpXuXn.i H F.F.'..X.X^ J.x.& 3 z.<XtX( T aXaXaXaX",
"aXaXaXaXaXaXY / ) R N !.].C.D.-X%X#X[.H.x.$ . Y :X:XY aXaXaXaXaX",
"aXaXaXaXaXaXaX/ / = C |.).].{.=X*X*X;X}.^.m = P U E / aXaXaXaXaX",
"aXaXaXaXaXaXaXaXaXV W. XOXOX#X$X$X%X%X@X/.m B aXaXaXaXaXaXaXaXaX",
"aXaXaXaXaXaXaXaXaXG m /. X XOX#X@X#XOXOXQ.S aXaXaXaXaXaXaXaXaXaX",
"aXaXaXaXaXaXaXaXaX^ M W././.(.Q.(.|.OX#X!.B aXaXaXaXaXaXaXaXaXaX",
"aXaXaXaXaXaXaXaXaXaX= m W.C M L B W.!.^.V - z aXaXaXaXaXaXaXaXaX",
"aXaXaXaXaXaXaXaXaXaX% n m n V aXR * 9 e w 8 @ aXaXaXaXaXaXaXaXaX",
"aXaXaXaXaXaXaXaXaX- + * $ . : aXs 8 +.+.0.6.6 ; aXaXaXaXaXaXaXaX",
"aXaXaXaXaXaXaXaXaXa 6 9 o + x aXa 7 w O.O.O.0 aXaXaXaXaXaXaXaXaX",
"aXaXaXaXaXaXaXaXaXaXa @ @ s aXaXaX- o o o @ z aXaXaXaXaXaXaXaXaX",
"aXaXaXaXaXaXaXaXaXaXaXaXaXaXaXaXaXaXaXaXaXaXaXaXaXaXaXaXaXaXaXaX",
"aXaXaXaXaXaXaXaXaXaXaXaXaXaXaXaXaXaXaXaXaXaXaXaXaXaXaXaXaXaXaXaX"
};
