/* XPM */
static char *result[] = {
/* columns rows colors chars-per-pixel */
"32 32 215 2 ",
"   c #1E0806",
".  c #1C0514",
"X  c #1C130D",
"o  c #200A00",
"O  c #291609",
"+  c #32160C",
"@  c #381A07",
"#  c #2D1B17",
"$  c #361A14",
"%  c #390F12",
"&  c #33241B",
"*  c #342113",
"=  c #302215",
"-  c #080C28",
";  c #02003A",
":  c #140A2D",
">  c #261537",
",  c #300F2D",
"<  c #292729",
"1  c #3B2D25",
"2  c #392E25",
"3  c #2F2C3F",
"4  c #332E34",
"5  c #3A383A",
"6  c #333530",
"7  c #5A0E00",
"8  c #441E09",
"9  c #431A15",
"0  c #4F1010",
"q  c #76160B",
"w  c #6A1A13",
"e  c #651717",
"r  c #750B13",
"t  c #462002",
"y  c #4B2409",
"u  c #5A2805",
"i  c #592415",
"p  c #503017",
"a  c #692E06",
"s  c #762B08",
"d  c #723C0F",
"f  c #70221C",
"g  c #753911",
"h  c #663A14",
"j  c #591439",
"k  c #611037",
"l  c #5E2B2A",
"z  c #592525",
"x  c #492635",
"c  c #4F3A32",
"v  c #622D25",
"b  c #6C2B27",
"n  c #6A3835",
"m  c #3D413D",
"M  c #67431B",
"N  c #4E483D",
"B  c #574436",
"V  c #7C532A",
"C  c #7F5E32",
"Z  c #6D4C2D",
"A  c #000247",
"S  c #151645",
"D  c #04045C",
"F  c #060754",
"G  c #0C135D",
"H  c #200E53",
"J  c #32124E",
"K  c #1E204C",
"L  c #29265A",
"P  c #342B4D",
"I  c #040668",
"U  c #171864",
"Y  c #100971",
"T  c #270C63",
"R  c #3C3879",
"E  c #590956",
"W  c #43105C",
"Q  c #5A144D",
"!  c #771B49",
"~  c #760841",
"^  c #4B2F4C",
"/  c #702B49",
"(  c #540A6D",
")  c #631A7B",
"_  c #384545",
"`  c #4A4947",
"'  c #485559",
"]  c #585A58",
"[  c #4A4F53",
"{  c #674647",
"}  c #665945",
"|  c #715F4E",
" . c #735659",
".. c #696459",
"X. c #585E63",
"o. c #635F64",
"O. c #5E6466",
"+. c #5E777C",
"@. c #696A69",
"#. c #737279",
"$. c #6F686E",
"%. c #990C07",
"&. c #8A1406",
"*. c #911707",
"=. c #9B150A",
"-. c #920E11",
";. c #860C10",
":. c #A31109",
">. c #A11908",
",. c #B4140B",
"<. c #833C09",
"1. c #890E32",
"2. c #B5122C",
"3. c #94362A",
"4. c #A63F20",
"5. c #AD2F2B",
"6. c #C10C07",
"7. c #C9170A",
"8. c #D9190A",
"9. c #D91711",
"0. c #CC140F",
"q. c #ED1B08",
"w. c #FB1F08",
"e. c #F51B09",
"r. c #F41D10",
"t. c #EB1C16",
"y. c #DE2008",
"u. c #D62413",
"i. c #E72109",
"p. c #FB2204",
"a. c #F82106",
"s. c #E22616",
"d. c #F22513",
"f. c #C0182F",
"g. c #CC3126",
"h. c #8C4215",
"j. c #A85411",
"k. c #9F5D20",
"l. c #855427",
"z. c #A04921",
"x. c #B7472A",
"c. c #A95B2C",
"v. c #906233",
"b. c #8F6E3B",
"n. c #B37A2D",
"m. c #C26E39",
"M. c #E07835",
"N. c #971A43",
"B. c #992241",
"V. c #802965",
"C. c #A75041",
"Z. c #9F7540",
"A. c #A87A43",
"S. c #9A636B",
"D. c #ED644F",
"F. c #E67A76",
"G. c #CC8835",
"H. c #E6953C",
"J. c #AF8250",
"K. c #B88F57",
"L. c #8F8676",
"P. c #CF8F49",
"I. c #F3A84E",
"U. c #E3AB5B",
"Y. c #FBB759",
"T. c #C29C69",
"R. c #CBAA73",
"E. c #D6B57B",
"W. c #D5A469",
"Q. c #EBBA77",
"!. c #F9CA77",
"~. c #081488",
"^. c #050D96",
"/. c #071395",
"(. c #110E87",
"). c #29159F",
"_. c #0A17B6",
"`. c #1B17B3",
"'. c #3219AF",
"]. c #1128BC",
"[. c #2726B3",
"{. c #481089",
"}. c #611985",
"|. c #71788A",
" X c #4C5FB7",
".X c #091DD7",
"XX c #0E16C6",
"oX c #0F21C6",
"OX c #0A21DF",
"+X c #0522DE",
"@X c #1124C5",
"#X c #2032D2",
"$X c #091FE3",
"%X c #0923E4",
"&X c #0A23E8",
"*X c #1B2AEE",
"=X c #2335EF",
"-X c #555FC6",
";X c #836C8E",
":X c #82879A",
">X c #91908B",
",X c #BB8A96",
"<X c #B6AA8D",
"1X c #AFB2B6",
"2X c #D1BE9E",
"3X c #F1CF91",
"4X c #F8D091",
"5X c #FBC3B2",
"6X c #FAE8B1",
"7X c #D8D9D9",
"8X c #C3CBCC",
"9X c #F7EAC5",
"0X c #F9FAFE",
"qX c #EAE8E4",
"wX c None",
/* pixels */
"wXwXwXwXwXwXwXwXwXwXwXwXwXwXwXwXwXwXwXwXwXwXwXwXwXwXwXwXwXwXwXwX",
"wXwXwXwXwXwXwXwXwXl w q w v wXwXwXwXwXwXwXwXwXwXwXwXwXwXwXwXwXwX",
"wXwXwXwXwXwXwXwXc 3.u.y.8.:.q l wXwXwXwXwXwXwXwXwXwXwXwXwXwXwXwX",
"wXwXwXwXwXwXwXwX@.F.d.w.a.d.9.*.v wXwXwXwXwXwXwXwXwXwXwXwXwXwXwX",
"wXwXwXwXwXwXwX9 S.F.d.w.p.p.w.q.>.z wXwXwXwXwXwXwXwXwXwXwXwXwXwX",
"wXwXwXwXwXwXq >.g.5.:.7.w.w.w.w.q.-.e n wXwXwXwXwXwXwXwXwXwXwXwX",
"wXwXwXwXwXl ;.,.s.*.7 &.7.e.e.w.p.i.7.>.f  .wXwXwXwXwXwXwXwXwXwX",
"wXwXwXwXwXwXz e z.m.J.c.%.6.q.q.a.p.p.d.,.n wXwXwXwXwXwXwXwXwXwX",
"wXwXwXwXwXwXwXN V T.2X3Xm.*.%.,.8.q.e.e.7.b wXwXwXwXwXwXwXwXwXwX",
"wXwXwXwXwXwX@.Z Z.C S.9XQ.h.7 &.%.,.8.9.-.v wXwXwXwXwXwXwXwXwXwX",
"wXwXwXwX..| <X<XE.b.L.9XW.g a c.4.q ;.;.e { wXwXwXwXwXwXwXwXwXwX",
"wXwXwXwXB R.6X6X6X<XR.3XJ.s j.H.U.h 8 % ^ wXwXwXwXwXwXwXwXwXwXwX",
"wXwXwXwXZ P.!.4X!.v.M K.!.n.G.Y.U.M o < wXwXwXwXwXwXwXwXwXwXwXwX",
"wXwXwXwX..C b.J.V @   Z.!.Y.I.P.c.u + wXwXwXwXwXwXwXwXwXwXwXwXwX",
"wXwXwXwXwXwXB & o @ g m.I.M.x.s t y 9 wXwXwXwXwXwXwXwXwXwXwXwXwX",
"wXwXwXwXwXwXwXwX< * n c.x.Q W , X o # wXwXwXwXwXwXwXwXwXwXwXwXwX",
"wXwXwXwXwXwXwX` x , J 1.1.{.).T .   5 wXwXwXwXwXwXwXwXwXwXwXwXwX",
"wXwXwXwXwXX.P x k E E B.V.'.}.N.-.r e z wXwXwXwXwXwXwXwXwXwXwXwX",
"wXwXwXwXwXm ' #.! k Q S.;X[.}.f.t.u.0.5.{ [ O.wXwXwXwXwXwXwXwXwX",
"wXwXwXwXwXX.' +. .k W :X:X#X'.( 2.s.D.5X7X1X@...wXwXwXwXwXwXwXwX",
"wXwXwXwXwXwX$._ P > U  X-X=X*X`.( ! ,XqX0X0X1X] wXwXwXwXwXwXwXwX",
"wXwXwXwXwXwXwXwX[ 3 G ].=X=X&X+XXX/.R |.8X7X>X@.wXwXwXwXwXwXwXwX",
"wXwXwXwXwXwXwXwXwXwXL ~.&X&XOX&X%X_.I - _ O.] wXwXwXwXwXwXwXwXwX",
"wXwXwXwXwXwXwXwXwXwXwXG _.$X%X%X.X^.F - 5 wXwXwXwXwXwXwXwXwXwXwX",
"wXwXwXwXwXwXwXwXwXwXwXL ~.+X%XoX^.D F F K wXwXwXwXwXwXwXwXwXwXwX",
"wXwXwXwXwXwXwXwXwXwXwXL ~.+X+X/.A ; F I D S < N wXwXwXwXwXwXwXwX",
"wXwXwXwXwXwXwXwXwX2 # T @X%X_.G P S F I Y H , O N wXwXwXwXwXwXwX",
"wXwXwXwXwXwXwXwXx y i P [.@X~.P #.4 : S J & y @ 2 wXwXwXwXwXwXwX",
"wXwXwXwXwXwXwXwXp h.a i P L > 4 5 # + @ @ t t * N wXwXwXwXwXwXwX",
"wXwXwXwXwXwXwXwXv g d a a t + X < & @ * @ $ & ` wXwXwXwXwXwXwXwX",
"wXwXwXwXwXwXwXwXwXB p p h 8 $ wXwXwX2 & 1 wXwXwXwXwXwXwXwXwXwXwX",
"wXwXwXwXwXwXwXwXwXwXwXwXc 1 wXwXwXwXwXwXwXwXwXwXwXwXwXwXwXwXwXwX"
};
