/* XPM */
static char *result[] = {
/* columns rows colors chars-per-pixel */
"32 32 190 2 ",
"   c #131715",
".  c #1C180A",
"X  c #320D17",
"o  c #2D171C",
"O  c #34181D",
"+  c #2A040C",
"@  c #17221D",
"#  c #242B0B",
"$  c #252609",
"%  c #2A2A14",
"&  c #263314",
"*  c #3A3A0B",
"=  c #371D22",
"-  c #3D3520",
";  c #343936",
":  c #2C2728",
">  c #41131B",
",  c #413E18",
"<  c #4B1524",
"1  c #5A172B",
"2  c #43272F",
"3  c #70203A",
"4  c #484F1C",
"5  c #575718",
"6  c #7B791B",
"7  c #41413C",
"8  c #51502D",
"9  c #616D22",
"0  c #7C7B28",
"q  c #707035",
"w  c #772A41",
"e  c #633740",
"r  c #494B49",
"t  c #49504D",
"y  c #545957",
"u  c #605D48",
"i  c #5E6562",
"p  c #6F726E",
"a  c #9B1B46",
"s  c #A81E47",
"d  c #8A2946",
"f  c #972B4C",
"g  c #88304D",
"h  c #9D3959",
"j  c #A32649",
"k  c #A92954",
"l  c #BB295B",
"z  c #B42857",
"x  c #AD345C",
"c  c #B9325F",
"v  c #A3384B",
"b  c #AC3D61",
"n  c #BC3B66",
"m  c #B93561",
"M  c #C72F62",
"N  c #C53C6A",
"B  c #9E435F",
"V  c #AF4751",
"C  c #B4445A",
"Z  c #827649",
"A  c #8E5060",
"S  c #BD466E",
"D  c #A65973",
"F  c #CB6C5F",
"G  c #D54676",
"H  c #CC587F",
"J  c #CD7569",
"K  c #738E45",
"L  c #7B8679",
"P  c #BA8C16",
"I  c #B6BE17",
"U  c #8B822C",
"Y  c #8F9525",
"T  c #9E9928",
"R  c #A29C2E",
"E  c #93A32B",
"W  c #88A135",
"Q  c #A5AA25",
"!  c #AFB024",
"~  c #AFAE32",
"^  c #AAB936",
"/  c #C2BD19",
"(  c #CFA022",
")  c #C6AE35",
"_  c #DFDB00",
"`  c #DDDA0F",
"'  c #C6C51B",
"]  c #DECF1F",
"[  c #D9D41D",
"{  c #E1CC14",
"}  c #EFE809",
"|  c #FBFD05",
" . c #F5F607",
".. c #F0EC1A",
"X. c #EDF21C",
"o. c #F9FD13",
"O. c #DCDF23",
"+. c #C7C537",
"@. c #D3C825",
"#. c #E8DE21",
"$. c #E8DB36",
"%. c #E0E920",
"&. c #F8F326",
"*. c #EBE434",
"=. c #829D43",
"-. c #969B57",
";. c #93A15B",
":. c #86A951",
">. c #9C9C64",
",. c #BA9174",
"<. c #DDAC50",
"1. c #D6BD5D",
"2. c #D0AC46",
"3. c #D78777",
"4. c #CC9A7F",
"5. c #DCA17F",
"6. c #EBAF71",
"7. c #EFBD7B",
"8. c #BFCE5F",
"9. c #D7D24D",
"0. c #D9CF5D",
"q. c #C3D153",
"w. c #C5CC55",
"e. c #EACB42",
"r. c #EED45F",
"t. c #F0E646",
"y. c #D8D765",
"u. c #D9DC76",
"i. c #E2E066",
"p. c #F3EA7C",
"a. c #AC7687",
"s. c #DA5985",
"d. c #E55587",
"f. c #E35887",
"g. c #DC638C",
"h. c #CE7A98",
"j. c #EE6F9B",
"k. c #E7759C",
"l. c #EA79A0",
"z. c #F37AA4",
"x. c #938A88",
"c. c #989C9C",
"v. c #A19F88",
"b. c #B18292",
"n. c #A39398",
"m. c #A8B0AD",
"M. c #BBB8BC",
"N. c #CF8080",
"B. c #DC8782",
"V. c #D39999",
"C. c #F48F9C",
"Z. c #E2908A",
"A. c #DEAF84",
"S. c #C0BF95",
"D. c #E9B08A",
"F. c #EDA987",
"G. c #CA95A7",
"H. c #D790A8",
"J. c #D89BB2",
"K. c #EB85A8",
"L. c #F389AE",
"P. c #E891AE",
"I. c #F68BB1",
"U. c #FC95B9",
"Y. c #FC9CBD",
"T. c #F594B5",
"R. c #F791A9",
"E. c #F5A3BF",
"W. c #FAA0BF",
"Q. c #B3C0BC",
"!. c #D5D789",
"~. c #EDEB84",
"^. c #F8E894",
"/. c #E3E995",
"(. c #CFC7A7",
"). c #DFD8BA",
"_. c #DBD9A7",
"`. c #F9DAB6",
"'. c #EDD1B9",
"]. c #FCE7B7",
"[. c #F7A4C0",
"{. c #FAA2C0",
"}. c #F3AAC2",
"|. c #E4BAC6",
" X c #DEDADC",
".X c #D7E0DD",
"XX c #F0E9C5",
"oX c #EADAE1",
"OX c #F2D5E1",
"+X c None",
/* pixels */
"+X+X+X+X+X+X+X+X+X+X+X+X+X+X+X+X+X+X+X+X+X+X+X+X+X+X+X+X+X+X+X+X",
"+X+X+X+X+X+X+X+X+X+X+X+X+X+X+X+X+X+X+X+X+X+X+X+X+X+X+X+X+X+X+X+X",
"+X+X+X+X+X+X+X+X+X+X+X+X+X+X+X+X+X+X+X+X+X+X+X+X+X+X+X+X+X+X+X+X",
"+X+X+X+X+X+X+X+X+X+X+X+X+X+X+X+X-.U 1.0 >.+X+X+X+X+X+X+X+X+X+X+X",
"+X+X+X+X+X+X+X+X+X+X+X+X+X+X+X+XQ @.P O.0 +X+X+X+X+X+X+X+X+X+X+X",
"+X+X+X+X+X+X+X+X+X+X+X+X+X+X# 9 / { ( ` Q 5 & +X+X+X+X+X+X+X+X+X",
"+X+X+X+X+X+X+X+X+X+X+X+X+X, ! X.o.} {  .o.%.Y % +X+X+X+X+X+X+X+X",
"+X+X+X+X+X+X+X+X+X+X+X+X+X6 ..| | |  .| |  .O.5 +X+X+X+X+X+X+X+X",
"+X+X+X+X+X+X+X+X+X+X+X+X# ~ &.} _  .|  ._  .&.U +X+X+X+X+X+X+X+X",
"+X+X+X+X+X+X+X+X+X+X+X+X+X5 [ $.y.9.*.0.0.#.' * +X+X+X+X+X+X+X+X",
"+X+X+X+X+X+X+X+X+X+X+X+X+X4 ^ ~.v.u !.r (.i.E & +X+X+X+X+X+X+X+X",
"+X+X+X+X+X+X+X+X+X+X+X+X& K :./.S.x.).L _.!.=.q . +X+X+X+X+X+X+X",
"+X+X+X+X+X+X+X+X+X+X+X+Xq q.W y.^.'.V.`.p.8.E w.4 +X+X+X+X+X+X+X",
"+X+X+X+X+X+X+X+X+X+X+X+X- R ' / 2.Z.h.6.) ' ' 0 & +X+X+X+X+X+X+X",
"+X+X+X+X+X+X+X+X+X+X+X+X+X6 @.<.J c V V 3.2.@.5 +X+X+X+X+X+X+X+X",
"+X+X+X+X+X+X+X+X+X+X+X+X# +.e.F.C.3.4.B.R.6.$.R +X+X+X+X+X+X+X+X",
"+X+X+X+X+X+X+X+X+X+X+X+X$ +.r.D.3.D.;.F.J D.t.R +X+X+X+X+X+X+X+X",
"+X+X+X+X+X+X+X+X+X+X+X+X$ 9 ^.`.J J ,.F 3.].p.4 +X+X+X+X+X+X+X+X",
"+X+X+X+X+X+X+X+X+X+X+X+XO Z XXG.f j j j v |.).8 +X+X+X+X+X+X+X+X",
"+X+X+X+X+X+X+X+X+X+X+X+X  i oXs.M z a l N H.oX7 +X+X+X+X+X+X+X+X",
"+X+X+X+X+X+X+X+X+X+X+X7 y M.J.m z N f.c z S |.c.t ; +X+X+X+X+X+X",
"+X+X+X+X+X+X+X+X+X+X: p M. XD x H K.U.l.G x b..Xm.i @ +X+X+X+X+X",
"+X+X+X+X+X+X+X+X+X+X+X  t n.H.K.R.E.E.W.L.K.G.x.;   +X+X+X+X+X+X",
"+X+X+X+X+X+X+X+X+X+X+X+X2 G.}.W.Y.W.E.}.E.E.}.a.O +X+X+X+X+X+X+X",
"+X+X+X+X+X+X+X+X+X+X+X+XA Y.W.[.{.[.W.E.W.E.{.P.e +X+X+X+X+X+X+X",
"+X+X+X+X+X+X+X+X+X+X+XX B I.{.{.W.E.E.W.Y.W.{.K.w +X+X+X+X+X+X+X",
"+X+X+X+X+X+X+X+X+X+X+X+ g k.Y.T.Y.[.[.{.U.U.U.g.3 +X+X+X+X+X+X+X",
"+X+X+X+X+X+X+X+X+X+X+Xo 1 S d.d.z.L.L.I.j.s.f.x < +X+X+X+X+X+X+X",
"+X+X+X+X+X+X+X+X+X+X+X+X= 1 h x n G G G c x g < +X+X+X+X+X+X+X+X",
"+X+X+X+X+X+X+X+X+X+X+X+X+X+XO > 1 d d d 1 > o +X+X+X+X+X+X+X+X+X",
"+X+X+X+X+X+X+X+X+X+X+X+X+X+X+X+X+X+X+X+X+X+X+X+X+X+X+X+X+X+X+X+X",
"+X+X+X+X+X+X+X+X+X+X+X+X+X+X+X+X+X+X+X+X+X+X+X+X+X+X+X+X+X+X+X+X"
};
