/* XPM */
static char *result[] = {
/* columns rows colors chars-per-pixel */
"32 32 194 2 ",
"   c #0F0903",
".  c #130204",
"X  c #1A1A08",
"o  c #2B1419",
"O  c #36111B",
"+  c #3B131D",
"@  c #27180C",
"#  c #1F2816",
"$  c #27290B",
"%  c #2C300D",
"&  c #242519",
"*  c #2D3410",
"=  c #3C3617",
"-  c #342A10",
";  c #3A1920",
":  c #382327",
">  c #43101D",
",  c #4D2117",
"<  c #481522",
"1  c #55162A",
"2  c #5F1D32",
"3  c #641B34",
"4  c #582528",
"5  c #442E33",
"6  c #4B2B2C",
"7  c #77233B",
"8  c #3E4222",
"9  c #48451A",
"0  c #57581C",
"q  c #705E1D",
"w  c #777A0C",
"e  c #485121",
"r  c #545625",
"t  c #5B6C2E",
"y  c #6B6827",
"u  c #796F33",
"i  c #5F3940",
"p  c #5E5E58",
"a  c #404549",
"s  c #79515B",
"d  c #476D5C",
"f  c #8E153C",
"g  c #81293F",
"h  c #A95A3B",
"j  c #897C29",
"k  c #85364D",
"l  c #8F3A52",
"z  c #8A2D4B",
"x  c #AE2F5B",
"c  c #B22C5A",
"v  c #BA2658",
"b  c #A2315B",
"n  c #B4305E",
"m  c #BF3E65",
"M  c #BB3663",
"N  c #C22C5F",
"B  c #C72D60",
"V  c #CD3767",
"C  c #D33168",
"Z  c #9C4F41",
"A  c #9C5E5C",
"S  c #AE4152",
"D  c #BC4259",
"F  c #98614F",
"G  c #BB6A4D",
"H  c #875060",
"J  c #BB416A",
"K  c #A34B69",
"L  c #AB657B",
"P  c #C3436E",
"I  c #CA4C76",
"U  c #D94275",
"Y  c #C9537B",
"T  c #CA7169",
"R  c #718332",
"E  c #538169",
"W  c #7FA868",
"Q  c #92941A",
"!  c #AC8C14",
"~  c #B1B41A",
"^  c #91823D",
"/  c #8C8B2E",
"(  c #B78F23",
")  c #A39A21",
"_  c #AE9630",
"`  c #8BAC3A",
"'  c #A9A826",
"]  c #B4AE22",
"[  c #BEBE20",
"{  c #AEB625",
"}  c #C0A215",
"|  c #C6BE1C",
" . c #CEAE2C",
".. c #C6BA2B",
"X. c #D5BF2B",
"o. c #C7A530",
"O. c #C0B63B",
"+. c #B3C119",
"@. c #BAC13B",
"#. c #CBC41C",
"$. c #CEC617",
"%. c #D5CC10",
"&. c #DEED1F",
"*. c #E8E703",
"=. c #F7FC06",
"-. c #FBFC04",
";. c #FCFA09",
":. c #F6F409",
">. c #E9E717",
",. c #F8F416",
"<. c #C6C528",
"1. c #D9C63C",
"2. c #DFDE34",
"3. c #D8D137",
"4. c #D4CE31",
"5. c #E2C630",
"6. c #E6C52D",
"7. c #DEE33D",
"8. c #E6E42A",
"9. c #F5EF2E",
"0. c #FCF820",
"q. c #EBE433",
"w. c #EBEE3D",
"e. c #F8ED34",
"r. c #8CB458",
"t. c #B3BE52",
"y. c #A4B34D",
"u. c #8D8871",
"i. c #B98468",
"p. c #8EAE65",
"a. c #A6A077",
"s. c #D1AB51",
"d. c #D1AB47",
"f. c #E6B644",
"g. c #D7A475",
"h. c #D2D343",
"j. c #F4F253",
"k. c #DDCA68",
"l. c #DBCD7C",
"z. c #EFE161",
"x. c #F7E874",
"c. c #FDED67",
"v. c #BA6C85",
"b. c #DA5986",
"n. c #CD6286",
"m. c #C87D96",
"M. c #E7739A",
"N. c #EF7DA4",
"B. c #F77BA7",
"V. c #B88695",
"C. c #A7A794",
"Z. c #BCABA4",
"A. c #D38182",
"S. c #C0899A",
"D. c #D9B48D",
"F. c #DBBA9D",
"G. c #E1AF97",
"H. c #E6B09D",
"J. c #F4B591",
"K. c #C79AAC",
"L. c #E986A7",
"P. c #F387AC",
"I. c #F58DB1",
"U. c #F88AB0",
"Y. c #EF9BB7",
"T. c #F394B5",
"R. c #FB96B9",
"E. c #FB9DBD",
"W. c #F999BA",
"Q. c #D4ABA3",
"!. c #EFA3BD",
"~. c #F4A3BF",
"^. c #F9A1BF",
"/. c #E9BDB8",
"(. c #F5BBAC",
"). c #D9C894",
"_. c #EAD98A",
"`. c #ECE39F",
"'. c #FAEB8B",
"]. c #D4CFB0",
"[. c #DCD1BE",
"{. c #EFD9AD",
"}. c #FCE5A4",
"|. c #F5A6C0",
" X c #FBA2C0",
".X c #D0CECF",
"XX c #D7CDD0",
"oX c #DBE1DA",
"OX c #F6EDD9",
"+X c #EEE3E3",
"@X c #FCF7EC",
"#X c #F7F5EE",
"$X c #EAF0F0",
"%X c None",
/* pixels */
"%X%X%X%X%X%X%X%X%X%X%X%X%X%X%X%X%X%X%X%X%X%X%X%X%X%X%X%X%X%X%X%X",
"%X%X%X%X%X%X%X%X%X%X%X%X%X%X%X%X%X%X%X9 %X%X%X%X%X%X%X%X%X%X%X%X",
"%X%X%X%X%X%X%X%X%X%X%X%X%X%X%X%X%Xr y k.j r %X%X%X%X%X%X%X%X%X%X",
"%X%X%X%X%X%X%X%X%X%X%X%X%X%X%X%X# y.1.! 5.t.8 %X%X%X%X%X%X%X%X%X",
"%X%X%X%X%X%X%X%X%X%X%X%X%X%X%X%X$ / 3.} 6.y.% %X%X%X%X%X%X%X%X%X",
"%X%X%X%X%X%X%X%X%X%X%X%X%X%X& 9 ) &.>.%.*.&.{ 0 - %X%X%X%X%X%X%X",
"%X%X%X%X%X%X%X%X%X%X%X%X%X%Xy 2.0.=.=.=.:.=.,.q.j %X%X%X%X%X%X%X",
"%X%X%X%X%X%X%X%X%X%X%X%X%X6 ] ,.:.*.:.-.-.*.*.;.#.9 %X%X%X%X%X%X",
"%X%X%X%X%X%X%X%X%X%X%X%X%X9 3.>.$.+.2.9.8.4.$.>.8.r %X%X%X%X%X%X",
"%X%X%X%X%X%X%X%X%X%X%X%X%XX w 3.k.a.u _.^ u.l.3.Q X %X%X%X%X%X%X",
"%X%X%X%X%X%X%X%X%X%X%X%X%X%Xt [ x.C.a oXp u.'.h.R %X%X%X%X%X%X%X",
"%X%X%X%X%X%X%X%X%X%X%X%X%X& d r.j.`.].OX[.{.c.t.E # %X%X%X%X%X%X",
"%X%X%X%X%X%X%X%X%X%X%X%X  y p.` q.z.}.D.{.x.q.` W / X %X%X%X%X%X",
"%X%X%X%X%X%X%X%X%X%X%X%X@ _ h.[ #.o.g.G.g.o...+.3.O.- %X%X%X%X%X",
"%X%X%X%X%X%X%X%X%X%X%X%X%X= ' #.d.G Z H.F h s.| +.9 %X%X%X%X%X%X",
"%X%X%X%X%X%X%X%X%X%X%X%X%X- { 4.J.A.Q.@XK.T J.h.<.= %X%X%X%X%X%X",
"%X%X%X%X%X%X%X%X%X%X%X%X%Xr j.6.H.[.+X#X.X/.(.f.e.u %X%X%X%X%X%X",
"%X%X%X%X%X%X%X%X%X%X%X%X%X9 7.X.D.OXOXK.XX#XF. .q.y %X%X%X%X%X%X",
"%X%X%X%X%X%X%X%X%X%X%X%X%X% Q <.).@XQ.A S.+X)...~ * %X%X%X%X%X%X",
"%X%X%X%X%X%X%X%X%X%X%X%X%X* Q ( i.K.K f x V.i.( ) 8 %X%X%X%X%X%X",
"%X%X%X%X%X%X%X%X%X%X%X%X%X& , x D M c n x n V D 4 & %X%X%X%X%X%X",
"%X%X%X%X%X%X%X%X%X%X%X%X%X%X1 x N v I L.n.v N n 3 . %X%X%X%X%X%X",
"%X%X%X%X%X%X%X%X%X%X%X%X%X: v.P P M.R.E.E.L.I m v.5 %X%X%X%X%X%X",
"%X%X%X%X%X%X%X%X%X%X%X%X%Xi Y.R.R.T.~.^.^.T.T.R.^.s %X%X%X%X%X%X",
"%X%X%X%X%X%X%X%X%X%X%X%Xo H |.|.E.E.|.!.E.|. X X^.L o %X%X%X%X%X",
"%X%X%X%X%X%X%X%X%X%X%X%Xo m.Y.|.|. X^.!.E.|.^.E.W.L.6 %X%X%X%X%X",
"%X%X%X%X%X%X%X%X%X%X%X%X; n.R. XE.|.|.|.|.E. X XW.M.4 %X%X%X%X%X",
"%X%X%X%X%X%X%X%X%X%X%X%X< m B.R.I.!.|.|.|.E.I.R.U.Y 1 %X%X%X%X%X",
"%X%X%X%X%X%X%X%X%X%X%X%XO 7 I b.b.B.I.I.I.P.b.b.Y z + %X%X%X%X%X",
"%X%X%X%X%X%X%X%X%X%X%X%X%X+ 7 M B C U U U V B m z < %X%X%X%X%X%X",
"%X%X%X%X%X%X%X%X%X%X%X%X%X%X%X+ < 3 7 H l 6 + + o %X%X%X%X%X%X%X",
"%X%X%X%X%X%X%X%X%X%X%X%X%X%X%X%X%X%X%X%X%X%X%X%X%X%X%X%X%X%X%X%X"
};
