/* XPM */
static char *result[] = {
/* columns rows colors chars-per-pixel */
"32 32 232 2 ",
"   c #2D0712",
".  c #390812",
"X  c #38350D",
"o  c #3A3F10",
"O  c #341C21",
"+  c #3D1821",
"@  c #443F10",
"#  c #481322",
"$  c #4E1626",
"%  c #4D1F2A",
"&  c #4F1E2B",
"*  c #541C29",
"=  c #62192D",
"-  c #601A2C",
";  c #45222A",
":  c #4E2934",
">  c #512532",
",  c #712339",
"<  c #75273E",
"1  c #464B18",
"2  c #524D1C",
"3  c #4F5716",
"4  c #535613",
"5  c #50531C",
"6  c #5B571C",
"7  c #605715",
"8  c #484A24",
"9  c #494B2E",
"0  c #4E502A",
"q  c #555322",
"w  c #555820",
"e  c #565C27",
"r  c #6E414C",
"t  c #744655",
"y  c #4F6750",
"u  c #4C705D",
"i  c #8E5537",
"p  c #995839",
"a  c #A51A48",
"s  c #842644",
"d  c #8C2646",
"f  c #8E2950",
"g  c #9C3152",
"h  c #A1284F",
"j  c #BA3F67",
"k  c #C22C5D",
"l  c #C72A66",
"z  c #CA2B60",
"x  c #C03063",
"c  c #C23764",
"v  c #C33A6D",
"b  c #B65358",
"n  c #B44469",
"m  c #BD4A71",
"M  c #976B73",
"N  c #CF475F",
"B  c #C84B5F",
"V  c #D4475D",
"C  c #D26F4C",
"Z  c #CC6D51",
"A  c #C94B65",
"S  c #CC4572",
"D  c #CF4574",
"F  c #C65179",
"G  c #C7577E",
"H  c #7F9F7C",
"J  c #94882E",
"K  c #9C922E",
"L  c #99A22A",
"P  c #9DA53D",
"I  c #A2A620",
"U  c #A7AE25",
"Y  c #A5A92C",
"T  c #BFA228",
"R  c #BDA629",
"E  c #BDB42B",
"W  c #CAA41A",
"Q  c #C6BA2E",
"!  c #CCBD31",
"~  c #C7C81F",
"^  c #D5D11B",
"/  c #E2E008",
"(  c #EFEB09",
")  c #F0ED09",
"_  c #FAFA04",
"`  c #FFFC06",
"'  c #FCF70A",
"]  c #F2F80B",
"[  c #F3F80C",
"{  c #F7FB0D",
"}  c #FBF90D",
"|  c #C2C43D",
" . c #DCDD3E",
".. c #E6D936",
"X. c #E8DA34",
"o. c #E9E73C",
"O. c #9DA948",
"+. c #AAB94D",
"@. c #B4A054",
"#. c #A8B551",
"$. c #869F76",
"%. c #D4A847",
"&. c #D6A84B",
"*. c #D4BC4F",
"=. c #D7B95B",
"-. c #DB936B",
";. c #D79076",
":. c #E1806F",
">. c #E18175",
",. c #CDA66C",
"<. c #C7C740",
"1. c #D1D54E",
"2. c #D5D653",
"3. c #E0D641",
"4. c #EEF557",
"5. c #EFF35D",
"6. c #BC5C85",
"7. c #A57483",
"8. c #C85981",
"9. c #D35788",
"0. c #DD5C89",
"q. c #E3598A",
"w. c #DE628C",
"e. c #CC7B94",
"r. c #DF7397",
"t. c #E1608D",
"y. c #E67AA0",
"u. c #7BA8A0",
"i. c #7EADC8",
"p. c #7FAECF",
"a. c #65A8D6",
"s. c #66A5DC",
"d. c #67A8D9",
"f. c #64AEDE",
"g. c #6DAFDA",
"h. c #73AFDB",
"j. c #78B4DF",
"k. c #4CA2E9",
"l. c #4EA3EB",
"z. c #4AA0EC",
"x. c #5DBAF8",
"c. c #6DAEE4",
"v. c #6FB9E8",
"b. c #6ABEEE",
"n. c #71B2E2",
"m. c #72B7E6",
"M. c #75B4E4",
"N. c #77B6E8",
"B. c #78B9E9",
"V. c #78BCEE",
"C. c #62B4F5",
"Z. c #6AB9F4",
"A. c #61BAF8",
"S. c #77BFF5",
"D. c #76C2F2",
"F. c #7CC6F3",
"G. c #7ACAF6",
"H. c #7FCBF8",
"J. c #87AC98",
"K. c #DAA58F",
"L. c #DBA791",
"P. c #D881A1",
"I. c #EF87A1",
"U. c #EF88AC",
"Y. c #F184AA",
"T. c #F384AB",
"R. c #F287AD",
"E. c #F08AAE",
"W. c #FB9FB6",
"Q. c #F29EBB",
"!. c #FA9FB8",
"~. c #FB99BC",
"^. c #FD9BBE",
"/. c #FB9CBD",
"(. c #FA9FBD",
"). c #FF9DBF",
"_. c #E7BAA4",
"`. c #E8B6AD",
"'. c #ECB9AF",
"]. c #F7A3BC",
"[. c #F6A2BD",
"{. c #F7A1BE",
"}. c #F4A3BF",
"|. c #F5A4BF",
" X c #F9A3B9",
".X c #F8A3BD",
"XX c #FBA3BD",
"oX c #F9A2BF",
"OX c #FCA2BF",
"+X c #F5A8BA",
"@X c #B9DAB7",
"#X c #BDDDB8",
"$X c #DCD99E",
"%X c #CBC9AD",
"&X c #D3D8A1",
"*X c #D3DAAE",
"=X c #D8DCA9",
"-X c #CECEB8",
";X c #CAD4B0",
":X c #80B4E1",
">X c #F7A2C3",
",X c #F9A1C0",
"<X c #FAA0C0",
"1X c #FCA0C0",
"2X c #FDA3C1",
"3X c #BFD2C4",
"4X c #82C0EB",
"5X c #95C9ED",
"6X c #9CCFEF",
"7X c #83C6F1",
"8X c #89CDF7",
"9X c #81CDFA",
"0X c #87CCFA",
"qX c #8CCFFB",
"wX c #8ECFFB",
"eX c #94C9F3",
"rX c #9FCCF3",
"tX c #93CFF9",
"yX c #8ED1FB",
"uX c #91D1F7",
"iX c #92D0F8",
"pX c #93D3FC",
"aX c #95D3FD",
"sX c #C6D7C2",
"dX c #E0C5C0",
"fX c #E0C9C1",
"gX c #EDECC8",
"hX c #EEE9CF",
"jX c #F1ECC3",
"kX c #F6F5E5",
"lX c #F7F4E6",
"zX c None",
/* pixels */
"zXzXzXzXzXzXzXzXzXzXzXzXzXzXzXzXzXzXzXzXzXzXzXzXzXzXzXzXzXzXzXzX",
"zXzXzXzXzXzXzXzXzXzXzXzXzXzXzXzXzXzXzXzXzXzXzXzXzXzXzXzXzXzXzXzX",
"zXzXzXzXzXzXzXzXzXzXzXzXzXzXzXzXzXzXzXzXzXzXzXzXzXzXzXzXzXzXzXzX",
"zXzXzXzXzXzXzXzXzXzXzXzXzXzXzXzXzXzXzXzXzXzXzXzXzXzXzXzXzXzXzXzX",
"zXzXzXzXzXzXzXzXzXzXzXzXzXzXzXzXzXzXzXzXzXzXzXzXzXzXzXzXzXzXzXzX",
"zXzXzXzXzXzXzXzXzXzXzXzXzXzXzXzXzXzXzXzXzXzXzXzXzXzXzXzXzXzXzXzX",
"zXzXzXzXzXzXzXzXzXzXzXzXzXzX0 w 5 e 9 zXzXzXzXzXzXzXzXzXzXzXzXzX",
"zXzXzXzXzXzXzXzXzXzXzXzXzXzX3 <.! | 1 zXzXzXzXzXzXzXzXzXzXzXzXzX",
"zXzXzXzXzXzXzXzXzXzXzXzXzX7 U ..W X.I 4 zXzXzXzXzXzXzXzXzXzXzXzX",
"zXzXzXzXzXzXzXzXzXzXzXzXq ^ } ( / ) { ~ 8 zXzXzXzXzXzXzXzXzXzXzX",
"zXzXzXzXzXzXzXzXzXtXaXrXsX4.] _ ` ' [ 5.3X6XpXuXzXzXzXzXzXzXzXzX",
"zXzXzXzXzXzXzXzXzXc.V.:Xp.#X1. .o.3.2.@Xi.N.b.f.zXzXzXzXzXzXzXzX",
"zXzXzXzXzXzXzXzXzXzXzXzXu J.$XgX=XjX&Xu.y zXzXzXzXzXzXzXzXzXzXzX",
"zXzXzXzXzXzXs.v.g.zXzXo O.$.*XlXhXkX;XH P zXzXzXh.m.zXzXzXzXzXzX",
"zXzXzXzXzX5X0XF.zXzXzXX Y #.-XdX'.fX%X+.L zXzXzXzXG.8XeXzXzXzXzX",
"zXzXzXzXzXiXwX4XzXzXzX@ Q =.`.K.,.L._.*.E zXzXzXzX7XqXyXzXzXzXzX",
"zXzXzXzXzXH.D.j.zXzXzXzXK %.:.-.@.;.>.&.J zXzXzXzXB.S.9XzXzXzXzX",
"zXzXzXzXzXA.x.n.zXzXzXzX6 R Z B b A C T 2 zXzXzXzXM.C.Z.zXzXzXzX",
"zXzXzXzXzXz.l.a.zXzXzXzXzXp N k a z V i zXzXzXzXzXd.k.zXzXzXzXzX",
"zXzXzXzXzXzXzXzXzXzXzXzX. h l v w.c x f   zXzXzXzXzXzXzXzXzXzXzX",
"zXzXzXzXzXzXzXzXzXzXzXzXt G 9.E.W.I.8.6.r zXzXzXzXzXzXzXzXzXzXzX",
"zXzXzXzXzXzXzXzXzXzXzXzX7.+XQ.(. X!.~.2XM zXzXzXzXzXzXzXzXzXzXzX",
"zXzXzXzXzXzXzXzXzXzXzX: P.XX]..X[.>X1XOXe.; zXzXzXzXzXzXzXzXzXzX",
"zXzXzXzXzXzXzXzXzXzXzX> y.).{.|.}.,X{.oXr.& zXzXzXzXzXzXzXzXzXzX",
"zXzXzXzXzXzXzXzXzXzXzX$ F T.R.^.<X/.U.Y.m # zXzXzXzXzXzXzXzXzXzX",
"zXzXzXzXzXzXzXzXzXzXzX+ < n D q.t.0.S j , O zXzXzXzXzXzXzXzXzXzX",
"zXzXzXzXzXzXzXzXzXzXzXzXzX% = d g s - * zXzXzXzXzXzXzXzXzXzXzXzX",
"zXzXzXzXzXzXzXzXzXzXzXzXzXzXzXzXzXzXzXzXzXzXzXzXzXzXzXzXzXzXzXzX",
"zXzXzXzXzXzXzXzXzXzXzXzXzXzXzXzXzXzXzXzXzXzXzXzXzXzXzXzXzXzXzXzX",
"zXzXzXzXzXzXzXzXzXzXzXzXzXzXzXzXzXzXzXzXzXzXzXzXzXzXzXzXzXzXzXzX",
"zXzXzXzXzXzXzXzXzXzXzXzXzXzXzXzXzXzXzXzXzXzXzXzXzXzXzXzXzXzXzXzX",
"zXzXzXzXzXzXzXzXzXzXzXzXzXzXzXzXzXzXzXzXzXzXzXzXzXzXzXzXzXzXzXzX"
};
