/* XPM */
static char *result[] = {
/* columns rows colors chars-per-pixel */
"32 32 213 2 ",
"   c #3D202A",
".  c #3A2335",
"X  c #463913",
"o  c #4F3710",
"O  c #633D11",
"+  c #643E09",
"@  c #481836",
"#  c #4B1D2E",
"$  c #741530",
"%  c #50242D",
"&  c #502E3E",
"*  c #672739",
"=  c #792C37",
"-  c #6C3536",
";  c #702E33",
":  c #574117",
">  c #61460D",
",  c #644A16",
"<  c #724B15",
"1  c #6C5119",
"2  c #68541B",
"3  c #7C5C16",
"4  c #79541F",
"5  c #6F530D",
"6  c #544626",
"7  c #584928",
"8  c #4E4F34",
"9  c #544E3A",
"0  c #4A4721",
"q  c #654C28",
"w  c #744222",
"e  c #6D5520",
"r  c #655836",
"t  c #66632F",
"y  c #503749",
"u  c #6E3847",
"i  c #605F48",
"p  c #76504E",
"a  c #6C4F5B",
"s  c #65535F",
"d  c #6C4243",
"f  c #665E6B",
"g  c #810E34",
"h  c #8F183C",
"j  c #903236",
"k  c #8F273B",
"l  c #876310",
"z  c #946F16",
"x  c #A07E1A",
"c  c #B2761B",
"v  c #944727",
"b  c #AA4730",
"n  c #8D7024",
"m  c #806E3D",
"M  c #8A7136",
"N  c #8E6C28",
"B  c #A67925",
"V  c #A87935",
"C  c #B06A35",
"Z  c #C9660B",
"A  c #C97B37",
"S  c #842B50",
"D  c #943057",
"F  c #AE2D4F",
"G  c #B4304E",
"H  c #B13C6E",
"J  c #E81F79",
"K  c #D23069",
"L  c #DC2877",
"P  c #D33F7D",
"I  c #E12F78",
"U  c #BB4240",
"Y  c #B14654",
"T  c #837359",
"R  c #8F4970",
"E  c #AB7E65",
"W  c #C84A54",
"Q  c #D17551",
"!  c #D54F74",
"~  c #D47579",
"^  c #E27F68",
"/  c #B78E02",
"(  c #B58319",
")  c #B68917",
"_  c #9E8939",
"`  c #B59030",
"'  c #CC9118",
"]  c #CFA202",
"[  c #E8A70B",
"{  c #E5B60C",
"}  c #E3BA17",
"|  c #EBAB1B",
" . c #DB8C27",
".. c #C89028",
"X. c #D99C2B",
"o. c #CCA226",
"O. c #C5A73B",
"+. c #DAB537",
"@. c #DCAA32",
"#. c #E8BD2D",
"$. c #E9AE2E",
"%. c #EDC009",
"&. c #FED90C",
"*. c #F4C919",
"=. c #FDDA11",
"-. c #FBD519",
";. c #F2C80D",
":. c #F6CA21",
">. c #E9C22C",
",. c #AC8C43",
"<. c #A18447",
"1. c #A89258",
"2. c #B6A257",
"3. c #968569",
"4. c #BC9A65",
"5. c #CC8948",
"6. c #D9B85E",
"7. c #CEA74E",
"8. c #F0AE42",
"9. c #E6AC50",
"0. c #E5AE4B",
"q. c #D49E62",
"w. c #C38D7A",
"e. c #C9A963",
"r. c #C8B666",
"t. c #D3BF6C",
"y. c #C2B67A",
"u. c #D1B572",
"i. c #E1A975",
"p. c #E5DE5D",
"a. c #E4C44B",
"s. c #EEC666",
"d. c #EFE477",
"f. c #BB3F8B",
"g. c #BD4387",
"h. c #A5628A",
"j. c #DC448A",
"k. c #DE5186",
"l. c #D45D90",
"z. c #E95B9D",
"x. c #F05E99",
"c. c #E64286",
"v. c #DD7F83",
"b. c #C1679F",
"n. c #D5668B",
"m. c #F46693",
"M. c #E37490",
"N. c #F4789E",
"B. c #F96BA8",
"V. c #F76FB2",
"C. c #F47EBB",
"Z. c #F87EB6",
"A. c #F176B4",
"S. c #FE74C3",
"D. c #989784",
"F. c #B2A88F",
"G. c #C4908C",
"H. c #D98283",
"J. c #EA9591",
"K. c #DBBA80",
"L. c #EDAF9C",
"P. c #E6BC90",
"I. c #E2B28A",
"U. c #DD9EA6",
"Y. c #D785BA",
"T. c #EC86A6",
"R. c #F185AD",
"E. c #E39FA4",
"W. c #EE8AB2",
"Q. c #F482BD",
"!. c #FD83BA",
"~. c #F498B4",
"^. c #D6A1AA",
"/. c #E5ABB7",
"(. c #F1B5B9",
"). c #D7C883",
"_. c #E4D583",
"`. c #EAD280",
"'. c #F4D291",
"]. c #FFEC97",
"[. c #DDD3AF",
"{. c #E0CFAF",
"}. c #E0CCBF",
"|. c #F2C9B4",
" X c #FBE5A3",
".X c #FFF9A5",
"XX c #F485C2",
"oX c #FB8DC4",
"OX c #F788C9",
"+X c #F895C9",
"@X c #FE9BD5",
"#X c #F69FD9",
"$X c #F997D2",
"%X c #FCA7CB",
"&X c #FDABD5",
"*X c #FCA5DD",
"=X c #FEADDC",
"-X c #FEA4D2",
";X c #FDB3D6",
":X c #FDB2DC",
">X c #F0BDD1",
",X c #ECBDC4",
"<X c #FDADE3",
"1X c #FEB2E3",
"2X c #EFD3D4",
"3X c #F4C4D4",
"4X c #F1E7C6",
"5X c #F9D6E6",
"6X c #FBCDEB",
"7X c #F7E3EA",
"8X c #FFF4FF",
"9X c #FEE3F4",
"0X c None",
/* pixels */
"0X0X0X0X0X0X0X0X0X0X0X0X0X0X0X0X0X0X0X0X0X0X0X0X0X0X0X0X0X0X0X0X",
"0X0X0X0X0X0X0X0X0X0X0X0X0X0X0X0X0X0X0X0X0X0X0X0X0X0X0X0X0X0X0X0X",
"0X0X0X0X0X0X0X0X0X0X0X0X0X0X0X0X0X0X0X0X0X0X0X0X0X0X0X0X0X0X0X0X",
"0X0X0X0X0X0X0X0X0X0X0Xi 8 0X0X6 9 0X0X0X0X0X0X0X0X0X0X0X0X0X0X0X",
"0X0X0X0X0X0X0X0X0X0X0Xr <.V N ,.m 8 0X0X0X0X0X0X0X0X0X0X0X0X0X0X",
"0X0X0X0X0X0X0X0X0X0X0 M s.8. .0.r.X 0X0X0X0X0X0X0X0X0X0X0X0X0X0X",
"0X0X0X0X0X0X0X0X0Xq 3 ( X. .Z $.( x , r 0X0X0X0X0X0X0X0X0X0X0X0X",
"0X0X0X0X0X0X0X0X, l #.*.[ | $.[ { *.) 1 0X0X0X0X0X0X0X0X0X0X0X0X",
"0X0X0X0X0X0X0X0X+ >.=.&.=.%.%.=.&.=.-.x o 0X0X0X0X0X0X0X0X0X0X0X",
"0X0X0X0X0X0X0X, B *.-.{ / } -./ ] *.-.o.e 0X0X0X0X0X0X0X0X0X0X0X",
"0X0X0X0X0X0X0X0XO #.+.O.+.#.#.+.O.@.#.x 7 0X0X0X0X0X0X0X0X0X0X0X",
"0X0X0X0X0X0X0X0X7 `.e._.2.7.0.7.r._.t.1.9 0X0X0X0X0X0X0X0X0X0X0X",
"0X0X0X0X0X0X5 < ,.{.4Xy.5 t.].n M 4X[.y.n < e 0X0X0X0X0X0X0X0X0X",
"0X0X0X0X0X0X_ +.s.F.F.)._ _..X1.1.[.D.).a.` 2 0X0X0X0X0X0X0X0X0X",
"0X0X0X0X0X0X> l 7.E f t. XK.e. X'.1.f 7._ 5 t 0X0X0X0X0X0X0X0X0X",
"0X0X0X0X0X0Xo ` ) 1.^.E.H.v.v.~ U.U.G.` o.3 0X0X0X0X0X0X0X0X0X0X",
"0X0X0X0X0Xr 4 @.c L.;X;XJ.^ Q J.%X&X(.5.' B q 0X0X0X0X0X0X0X0X0X",
"0X0X0X0X0XX ` ' c w.5X3XP.d.p.r./.6X(.C ' @., 0X0X0X0X0X0X0X0X0X",
"0X0X0X0X0Xo c ..V }.8X7X|.i.e.I.2X8X7X4.c ..> 0X0X0X0X0X0X0X0X0X",
"0X0X0X0X0XX C A C ,X9X3XR.m.x.N./.9X5X4.C 5.O 0X0X0X0X0X0X0X0X0X",
"0X0X0X0X0Xr v U ! R.~.R.! J J L l.+XW.M.W b < 0X0X0X0X0X0X0X0X0X",
"0X0X0X0X0X- j n.+X!.C.Q.C.Q.S.C.Q.Q.R.oXW.Y ; 0X0X0X0X0X0X0X0X0X",
"0X0X0X0Xf u n.%X=X$XOX$X<X:X;X1X<XXX$X*X&XW.S f 0X0X0X0X0X0X0X0X",
"0X0X0X0X. h.Q.&X&X<X#X=X:X:X:X:X<X*X#X*X;X+XY.y 0X0X0X0X0X0X0X0X",
"0X0X0X0X  R C.OX@XoX%X:X:X1X1X1X;X=XOX$X+XoXb.& 0X0X0X0X0X0X0X0X",
"0X0X0X0X0X* l.B.c.z.$X-X&X<X<X<X&X-XQ.j.x.V.S a 0X0X0X0X0X0X0X0X",
"0X0X0X0X0X- k K I x.Z.S.OX@X@X$XQ.!.B.c.L G ; 0X0X0X0X0X0X0X0X0X",
"0X0X0X0X0X0Xu k h ! k.x.S.S.S.S.V.k.! F k = p 0X0X0X0X0X0X0X0X0X",
"0X0X0X0X0X0X0X0Xd $ $ D g.f.g.j.H g $ * 0X0X0X0X0X0X0X0X0X0X0X0X",
"0X0X0X0X0X0X0X0X0X0X0X0X# @ . @ % 0X0X0X0X0X0X0X0X0X0X0X0X0X0X0X",
"0X0X0X0X0X0X0X0X0X0X0X0X0X0X0X0X0X0X0X0X0X0X0X0X0X0X0X0X0X0X0X0X",
"0X0X0X0X0X0X0X0X0X0X0X0X0X0X0X0X0X0X0X0X0X0X0X0X0X0X0X0X0X0X0X0X"
};
