/* XPM */
static char *result[] = {
/* columns rows colors chars-per-pixel */
"32 32 180 2 ",
"   c #493834",
".  c #593E33",
"X  c #643D2E",
"o  c #693F3F",
"O  c #743F33",
"+  c #75422C",
"@  c #7D452B",
"#  c #6F4136",
"$  c #6B483C",
"%  c #6D453D",
"&  c #714037",
"*  c #7D4235",
"=  c #75463A",
"-  c #7B433B",
";  c #4F3E49",
":  c #4C364C",
">  c #5D3D4C",
",  c #4E3F5D",
"<  c #453E55",
"1  c #6A3D43",
"2  c #4C4850",
"3  c #584153",
"4  c #524857",
"5  c #594A57",
"6  c #644349",
"7  c #774248",
"8  c #724B42",
"9  c #7D544E",
"0  c #644F51",
"q  c #7E665C",
"w  c #58417F",
"e  c #5E4572",
"r  c #7D4E6F",
"t  c #724B69",
"y  c #675277",
"u  c #883E26",
"i  c #823F28",
"p  c #9A5E4A",
"a  c #805C52",
"s  c #8F5F58",
"d  c #A04E41",
"f  c #AD5642",
"g  c #A65A42",
"h  c #AB5841",
"j  c #A05E5A",
"k  c #8C6459",
"l  c #AA654F",
"z  c #B3624D",
"x  c #A86756",
"c  c #A76855",
"v  c #AB6857",
"b  c #B26754",
"n  c #8D5278",
"m  c #7D3F8C",
"M  c #4D5C88",
"N  c #5F5C87",
"B  c #6D4F88",
"V  c #7B4D8B",
"C  c #635587",
"Z  c #665884",
"A  c #6B5886",
"S  c #675788",
"D  c #7B5581",
"F  c #70558D",
"G  c #6A4592",
"H  c #7E4D9A",
"J  c #6E5D92",
"K  c #6B5A9A",
"L  c #635D98",
"P  c #745592",
"I  c #715995",
"U  c #795897",
"Y  c #715698",
"T  c #7E509A",
"R  c #715A9B",
"E  c #78589B",
"W  c #7553A0",
"Q  c #7C52A4",
"!  c #7858A2",
"~  c #725CA8",
"^  c #745DA6",
"/  c #804C8F",
"(  c #84528A",
")  c #905C8F",
"_  c #8A4893",
"`  c #844C9C",
"'  c #8B4D9C",
"]  c #814A95",
"[  c #8A5D97",
"{  c #83569B",
"}  c #84589E",
"|  c #825392",
" . c #9A5497",
".. c #90509B",
"X. c #8B6981",
"o. c #886896",
"O. c #956B90",
"+. c #92629E",
"@. c #A16198",
"#. c #AC7D9D",
"$. c #A57C96",
"%. c #844DA2",
"&. c #884DA3",
"*. c #8C59A2",
"=. c #9A51A1",
"-. c #965BA6",
";. c #9452AB",
":. c #9E5BAB",
">. c #9254A5",
",. c #A55BAA",
"<. c #A85FAF",
"1. c #A55CA5",
"2. c #AA6EA2",
"3. c #B765A9",
"4. c #B26DA3",
"5. c #AF72A0",
"6. c #AE7BA6",
"7. c #B777A5",
"8. c #BF7BAC",
"9. c #BC76AB",
"0. c #A764B1",
"q. c #B469B3",
"w. c #BB6AB4",
"e. c #B264B8",
"r. c #B968BA",
"t. c #B264B4",
"y. c #BB75B7",
"u. c #BF74BB",
"i. c #BE7CB9",
"p. c #C36EB3",
"a. c #C56FB9",
"s. c #C372B9",
"d. c #CC75BB",
"f. c #CE74B5",
"g. c #D67CB6",
"h. c #D67BBB",
"j. c #D97ABC",
"k. c #DC7CB4",
"l. c #CF72C4",
"z. c #CD7AC0",
"x. c #D27CC0",
"c. c #DB7BC0",
"v. c #D778C9",
"b. c #B1839E",
"n. c #BF84A6",
"m. c #B487A9",
"M. c #BE84AE",
"N. c #B98AAE",
"B. c #B386A8",
"V. c #BF8CB2",
"C. c #B283B5",
"Z. c #C38CAD",
"A. c #C988AE",
"S. c #C185AD",
"D. c #C587B3",
"F. c #CC82B0",
"G. c #C389B3",
"H. c #C888B2",
"J. c #CD81B9",
"K. c #D282B5",
"L. c #D986B7",
"P. c #D281B9",
"I. c #D980B9",
"U. c #D088B9",
"Y. c #DA8AB6",
"T. c #C694B0",
"R. c #CD97B6",
"E. c #D590B8",
"W. c #DC86C1",
"Q. c #DD99C5",
"!. c #E18FC5",
"~. c #E395C3",
"^. c #E19ECC",
"/. c #EF9ED0",
"(. c #E3A9C9",
"). c #EEA9D1",
"_. c #F6AAD9",
"`. c #F8AFDA",
"'. c #F6ADD4",
"]. c None",
/* pixels */
"].].].].].].].].].].].].].].].].].].].].].].].].].].].].].].].].",
"].].].].].].].].].].].].].].].].].].].].].].].].].].].].].].].].",
"].].].].].].].].].].].].].].].].].].].].].].].].].].].].].].].].",
"].].].].].].].].].].].].].].#.S.H.D.H.H.V.V.m.].].].].].].].].].",
"].].].].].].].].].].].].b.R.).~.h.h.h.g.h.g.J.M.].].].].].].].].",
"].].].].].].].].].].].].H.~._.~.h.h.h.j.c.h.j.h.D.].].].].].].].",
"].].].].].].].].].].].m.P.g.I.g.h.j.h.j.h.h.j.j.h.5.].].].].].].",
"].].].].].].].].].].].V.g.j.j.h.h.h.h.h.h.h.h.j.h.7.].].].].].].",
"].].].].].].].].].].].6.j.j.j.h.h.x.h.j.h.h.h.h.h.8.].].].].].].",
"].].].].].].].].].].].) d.j.j.h.h.h.h.j.h.h.j.j.h.9.].].].].].].",
"].].].].].].T.Z.G.G.2. .3.h.h.h.j.h.h.h.h.j.h.h.x.4.].].].].].].",
"].].].].Z.(.).L.g.h.h.x.p.p.h.g.j.g.j.j.h.c.j.h.x.@.].].].].].].",
"].].].$.E.`./.I.g.j.h.h.h.h.j.h.h.h.j.h.h.h.h.c.s.( ].].].].].].",
"].].].B.P.W.h.h.j.j.j.j.h.j.j.f.h.x.h.h.h.h.h.z.0.V ].].].].].].",
"].].].M.j.h.h.j.j.c.h.h.h.j.j.p.p.x.x.c.c.h.a.:.' P ].].].].].].",
"].].].G.j.j.x.j.j.h.h.h.j.j.j.s. .1.w.a.q.1...` R Z ].].].].].].",
"].].].M.j.h.h.j.h.h.h.h.j.j.x.u._ m _ ' ` H V | o.o.X.].].].].].",
"].].].#.P.g.h.h.h.h.h.h.j.j.h.q.H G ~ ~ ! [ M.Q.U.K.F.M.b.].].].",
"].].].D y.j.j.j.g.g.g.h.h.h.p.=.V G M M C C.^._.Y.g.h.h.J.O.].].",
"].].].e { 0.p.d.h.j.h.d.d.r.;.%.F , 2 ; n P.j.W.g.g.h.h.v.+.].].",
"].].].].Z I { *.-.:.,.:.>.&.Q E y 6 8 1 n P.j.j.j.j.g.k.l.} ].].",
"].].].].].].L L K K Y Y F J A t 7 O 6 1 r s.j.j.c.j.j.d.<.U ].].",
"].].].].].].].].].].].4 3 5 0 j d O ].].N *.e.r.a.a.t.;.Q J ].].",
"].].].].].].].].].].].q s - O z f + ].].2 B Q &.` &.Q E K ].].].",
"].].].].].].].].].].].].a 9 & c g @ = - o : S K R Y R ].].].].].",
"].].].].].].].].].].].].].].$ c h u * * #   ].].].].].].].].].].",
"].].].].].].].].].].].].].].].v f i X . ].].].].].].].].].].].].",
"].].].].].].].].].].].].].].k b g + ].].].].].].].].].].].].].].",
"].].].].].].].].].].].].].].k v p = ].].].].].].].].].].].].].].",
"].].].].].].].].].].].].].].].].].].].].].].].].].].].].].].].].",
"].].].].].].].].].].].].].].].].].].].].].].].].].].].].].].].].",
"].].].].].].].].].].].].].].].].].].].].].].].].].].].].].].].]."
};
