/* XPM */
static char *e288e70097af4f31fb91fc3a175c33a9AoIiNaC4NiVc899S[] = {
/* columns rows colors chars-per-pixel */
"32 32 209 2 ",
"   c None",
".  c #1F3227",
"X  c #173F20",
"o  c #1F3C27",
"O  c #1D342D",
"+  c #1F3B2E",
"@  c #1D3935",
"#  c #262E2D",
"$  c #23352D",
"%  c #28312B",
"&  c #222F31",
"*  c #243632",
"=  c #2B3335",
"-  c #233A33",
";  c #2A3B34",
":  c #243C3B",
">  c #2C3C3B",
",  c #313538",
"<  c #10462A",
"1  c #1A442F",
"2  c #185E21",
"3  c #1D5B2B",
"4  c #1B5123",
"5  c #184633",
"6  c #174E35",
"7  c #1D4934",
"8  c #1C473C",
"9  c #1F4C3C",
"0  c #195132",
"q  c #1B593B",
"w  c #204C26",
"e  c #20442D",
"r  c #215528",
"t  c #224434",
"y  c #2B4235",
"u  c #234933",
"i  c #23423B",
"p  c #2C443C",
"a  c #244D3F",
"s  c #2D4C3A",
"d  c #32433C",
"f  c #364B3C",
"g  c #2D5536",
"h  c #255A34",
"j  c #285D36",
"k  c #23523B",
"l  c #2C573E",
"z  c #2A5D3C",
"x  c #255132",
"c  c #31593E",
"v  c #33533C",
"b  c #1E6834",
"n  c #1D7430",
"m  c #28702C",
"M  c #26782E",
"N  c #266131",
"B  c #2F6733",
"V  c #20613A",
"C  c #2A6A3A",
"Z  c #34693A",
"A  c #2B7C35",
"S  c #2A753C",
"D  c #2A7E3B",
"F  c #257934",
"G  c #34713B",
"H  c #3B7638",
"J  c #3B7C3E",
"K  c #333E43",
"L  c #1F5942",
"P  c #1B5341",
"I  c #2D4443",
"U  c #204D44",
"Y  c #2B4C43",
"T  c #334D46",
"R  c #255443",
"E  c #2B5345",
"W  c #235B42",
"Q  c #2A5C41",
"!  c #2E534B",
"~  c #2A5B4A",
"^  c #255B49",
"/  c #335346",
"(  c #32584A",
")  c #355C42",
"_  c #3A4E52",
"`  c #385A53",
"'  c #1D6245",
"]  c #246445",
"[  c #2C6247",
"{  c #2E624F",
"}  c #2F6C4F",
"|  c #2D6C47",
" . c #3B6D43",
".. c #376548",
"X. c #2C7145",
"o. c #2F7C46",
"O. c #297448",
"+. c #367043",
"@. c #3B7D43",
"#. c #3A7349",
"$. c #2F6850",
"%. c #3C6451",
"&. c #37685A",
"*. c #396A55",
"=. c #2E7253",
"-. c #2D7952",
";. c #357352",
":. c #3B735C",
">. c #41674F",
",. c #447B4C",
"<. c #44615A",
"1. c #436A57",
"2. c #4E795E",
"3. c #467453",
"4. c #22832D",
"5. c #348F2E",
"6. c #31962F",
"7. c #2C8A3B",
"8. c #2B8537",
"9. c #308135",
"0. c #338D36",
"q. c #348E39",
"w. c #3B8D3D",
"e. c #34923C",
"r. c #3A993C",
"t. c #3CA32C",
"y. c #3FA332",
"u. c #3FA13D",
"i. c #42873E",
"p. c #41903E",
"a. c #429D3C",
"s. c #43AA2D",
"d. c #53BC2D",
"f. c #44A335",
"g. c #44AB36",
"h. c #43A43A",
"j. c #4AA63B",
"k. c #45A93B",
"l. c #4CAC3D",
"z. c #49B637",
"x. c #4DB23D",
"c. c #4EBA38",
"v. c #54BB34",
"b. c #51B63E",
"n. c #54BA3B",
"m. c #53B636",
"M. c #2E814B",
"N. c #3B8345",
"B. c #358C46",
"V. c #388E43",
"C. c #3D834D",
"Z. c #338543",
"A. c #369443",
"S. c #389740",
"D. c #3E9B45",
"F. c #3D9F49",
"G. c #3B8554",
"H. c #3C8B53",
"J. c #3FA146",
"K. c #408547",
"L. c #42844A",
"P. c #48864C",
"I. c #408E4C",
"U. c #469444",
"Y. c #499645",
"T. c #429D41",
"R. c #489F45",
"E. c #439E4D",
"W. c #4B9D4D",
"Q. c #42934C",
"!. c #448452",
"~. c #4B8258",
"^. c #4A8952",
"/. c #558D54",
"(. c #459B54",
"). c #4C9A50",
"_. c #4B9C5B",
"`. c #4D9350",
"'. c #539A56",
"]. c #519758",
"[. c #599B5C",
"{. c #43A243",
"}. c #48A740",
"|. c #4CAC43",
" X c #44A54B",
".X c #46A94F",
"XX c #4DAD4B",
"oX c #4CA04C",
"OX c #53A64E",
"+X c #57AB4E",
"@X c #57A44A",
"#X c #4DB242",
"$X c #4DB24A",
"%X c #52B544",
"&X c #58B745",
"*X c #57BB46",
"=X c #53BA44",
"-X c #59BD40",
";X c #54B34C",
":X c #4EA353",
">X c #4EAD52",
",X c #44A055",
"<X c #52AB53",
"1X c #50AC5D",
"2X c #57A358",
"3X c #4DB153",
"4X c #53B355",
"5X c #488960",
"6X c #5BAB60",
/* pixels */
"                                                                ",
"                                                                ",
"                                                                ",
"                                                                ",
"                            /.~.%.                              ",
"                      +.3 J 2X`.C 1 u  .,.z                     ",
"                !.K.Y.Y.p.OXh.r.F G H i.).I.;.                  ",
"            2.,.Y.+Xj.f.;X;Xk.$X X+X@XT. X1X(.!.j l             ",
"          7  .@Xj.{.XXf.m.n.-Xn.n.l.f.r.{.;X&X%XW.L.j           ",
"        B G m a.&X}.%Xn.v.n.v.v.v.v.n.x.u.a.h.x.J.(.C.W U       ",
"      !.U.<X}.y.#X*Xn.v.v.v.d.d.v.v.d.n.XXq.{.#Xr.7.(.G.$.      ",
"    b B.{.#X=Xg.#Xn.v.v.n.v.d.v.n.v.v.b.S.F {.;XXXT.T.(.5X      ",
"    9.A.J.#X%Xh.#Xn.v.v.n.n.v.v.n.n.n.|.8.e.h.|.a..XXXE.G.[     ",
"  P.OX.XF.|.j.5.k.n.v.n.=Xn.n.n.c.s.%X;Xh.h.n.$Xe.4..X(.O.]     ",
"  ~.2X0.e.XXj.a.h.x.b.=Xk.b.%Xg.z.t.h.4X#Xs.x.{.,Xn 8.G.=.{ 8   ",
"  *.N.q.>X XXX{.h.x.=Xh.y.t.$X6.#X#X{.D.h.*X$XD._.C.3 Q ` ! I   ",
"  ) r L.2XA V.E.>X X$Xk.$Xh.a.D.h.&X:XD Q.w.oXW.@.3.5 5 + $ >   ",
"    X  .G 2 N.6X:XD A.>XJ.{.u.<X0.R.:XM _.S @.].Z v + E p *     ",
"      t g 4 ^.[.C q m :XB.7.3X4XZ.S I.A o.V z #.g y - ` <.      ",
"      O T e  .Z 7 ~ N '.H.M.B.:XN.q ;.X.] 0 c e - * : T _       ",
"        : t x h R &.h C.O.-.b '.G 6 ^ P :...s ; > @ * >         ",
"          Y u ..] ~ < | ' =.X.Z w k 9 U 1.s O * : ! i           ",
"          I i %.[ 8 R R L ;.z e o >.t y f - @ : Y %.Y           ",
"            I / i : <.t Q l t p y s t . % K : Y a E             ",
"              _ _ I / k } q ! - ; O d # # = & * * I             ",
"                    p k *.W &.p ; $ ; ; , = K >                 ",
"                      Y ~ 9 ( p d *                             ",
"                            Y * ;                               ",
"                                                                ",
"                                                                ",
"                                                                ",
"                                                                "
};
